<svg id="Layer_1" data-name="Layer 1" xmlns="http://www.w3.org/2000/svg" viewBox="0 0 52 56.63"><defs><style>.cls-1{fill:#fff;}.cls-2{fill:#2733ff;}.cls-3{fill:#ff2600;}.cls-4{fill:none;stroke:#dd0031;stroke-linecap:round;stroke-linejoin:round;stroke-width:0;}</style></defs><title>Artboard 6</title><path class="cls-1" d="M45.6,36.39A15.69,15.69,0,0,0,32.23,20.9v31c.32,0,.63-.1.94-.17A15.69,15.69,0,0,0,45.6,36.39ZM37,26.73a1.9,1.9,0,1,1-1.9,1.9A1.9,1.9,0,0,1,37,26.73Zm-1.9,9.67a1.9,1.9,0,1,1,3.8,0h0a1.9,1.9,0,0,1-3.8,0ZM37,42.26a1.9,1.9,0,1,1-1.9,1.9A1.9,1.9,0,0,1,37,42.26Z"/><path class="cls-2" d="M50.18,36.39A20.26,20.26,0,0,0,29.94,16.16H27.66L41.26,0H27.65V16.16h0V56.63h2.29A20.26,20.26,0,0,0,50.18,36.39ZM32.23,20.9a15.66,15.66,0,0,1,.94,30.82c-.31.07-.62.12-.94.17Z"/><path class="cls-2" d="M22.06,56.63h2.29V16.16H22.06a20.24,20.24,0,1,0,0,40.47ZM19.77,20.9v31a15.66,15.66,0,0,1,0-31Z"/><path class="cls-3" d="M35.17,29.19a1.9,1.9,0,0,0,3.69-.28,1.9,1.9,0,1,0-3.76,0A1.89,1.89,0,0,0,35.17,29.19Z"/><path class="cls-4" d="M38.69,29.47a1.89,1.89,0,0,0,.11-.28"/><path class="cls-4" d="M35.28,29.47a1.89,1.89,0,0,1-.11-.28"/><path class="cls-4" d="M35.17,29.19a1.89,1.89,0,0,1-.06-.28"/><path class="cls-4" d="M38.8,29.19a1.89,1.89,0,0,0,.06-.28"/><path class="cls-3" d="M37,38.3a1.9,1.9,0,0,0,1.9-1.9h0a1.9,1.9,0,1,0-3.8,0h0A1.9,1.9,0,0,0,37,38.3Z"/><circle class="cls-3" cx="36.99" cy="44.16" r="1.9"/><path class="cls-3" d="M19.77,51.89v-31a15.66,15.66,0,0,0,0,31Z"/></svg>