<svg id="Layer_1" data-name="Layer 1" xmlns="http://www.w3.org/2000/svg" viewBox="0 0 235 201">
  <defs>
  </defs>
  <title>drizzly</title>
  <g>
    <path class="cls-1" d="M229.58,26.4c-4.08-.38-15.37.19-18.18-.94s-6.51-3.79-7.87-5.68-7-8-11.28-9.46S182,8.61,179.61,8.61s-8.36,0-10.69-.94S163.3-.62,160.17.47c0,0-5.44.38-8.94,7.76s-2.53,8.52-16.53,11.55-28.58,1.89-34.61,5.11S87.64,39.08,71.51,39.65,49.93,38.7,32,49.68c-12.1,7.42-16.9,13.89-19.4,18.42l6.17-1.44c11.87-2.77,18.45.91,18.27,18.91S30,110.5,18.35,113.21L8.28,115.56l.39-40C5.83,80.67,1,90.48.15,99.65c-1,11,3.11,28.57,3.69,34.44s2.73,13.06,2.53,17.23-2.14,15,0,17.22,15,8.7,23.72,4.16,4.47-7.38,2.92-8.7a56.4,56.4,0,0,1-5.44-6.44,3.94,3.94,0,0,1-.19-4.35c.58-1.14,2.71-8.9,3.3-10.22s9.53-14.2,10.3-16.66,7.78-1.7,9.34-.38,4.27,9.84,4.47,13.63.39,14.2,3.69,17.41,16.51,3.76,18.86,3.79c4,.05,8-2.67,5.43-5.13s-8.54-8.31-9.51-9.63,1-7.2,2.72-9.47,3-2.84,4.11-.38,6.58,17.61,7.75,26.69,1.36,21.77,2.14,24,12.06,13.25,18.08,13.25,25.08-3.6,16-14.39-10.12-7.19-10.5-16.65,1.36-28,1.94-33.13.78-5.86,1.94-3.21,3.5,23.28,5.26,29.71,2.67,14.35,9.72,17,26.08,5.92,30.71,2.46c2.85-2.13-1.75-5.49-6.41-9.09s-12.25-7.76-12.44-12.87,3.69-24.6,6-30.09,3.7-11.74,4.28-20.25,1.55-22.33,2.91-23.09c1.09-.6,11.25-5.39,21.05-10.94l.16-17.08L167.83,32l7.66-1.78L182.74,50l7.8-23.28L197.65,25l-11.47,31.8L186,71.13c11.11-7.08,14.78-8.4,17.1-10.09s9.91-1.14,16.33-4.92,6.2-7,6.2-7,3.72-2.84,4.69-6.62,4.08-5.68,4.08-10.22S233.66,26.78,229.58,26.4ZM67.7,101.72l-7-16.44-5,1.15-.18,18.12-7.38,1.72.45-46.55,11.19-2.61c9.66-2.25,15.14.62,15,10.5-.06,5.22-1.9,10.54-7.38,14.27L75.23,100Zm26.85-6.25L87,97.24l.45-46.55L95,48.92Zm38.65-50L114.62,84.9l18.23-4.24-.06,5.91-26.57,6.19,0-5.22,18.57-39.48L108,52l.06-6.1L133.25,40Zm33.07,33.35L143.83,84l.46-46.56,7.59-1.77-.4,40.65,14.84-3.46Z"/>
    <path class="cls-1" d="M59.61,63.12,56,64l-.16,16.86,3.93-.91c5.46-1.27,7.68-4,7.75-10.47C67.53,63.29,65.41,61.77,59.61,63.12Z"/>
    <path class="cls-1" d="M29.42,87.35c.12-12.33-2.25-16.61-9.77-14.86l-3.38.79-.35,34.66,3.46-.8C26.83,105.4,29.29,99.87,29.42,87.35Z"/>
  </g>
</svg>
