<svg id="Layer_1" data-name="Layer 1" xmlns="http://www.w3.org/2000/svg" viewBox="0 0 2683.6 4062.54"><defs><style>.cls-1{fill:#003da6;}.cls-2{fill:#fff;}.cls-3{fill:#dd0031;}</style></defs><title>Artboard 1</title><path class="cls-1" d="M775.08,1363.86c-23.52,15.3-41.7,23.05-65,23.05-26.46,0-47.65-7.68-64.75-23.5-16.71-15.44-24.82-34.42-24.82-58.07,0-21.55,6.08-38.06,18.55-50.48s29.16-18.49,51-18.49,39.05,6.74,52.92,20.59h32.12v-83l-14.63-3.34a278.83,278.83,0,0,0-61.89-7c-49.51,0-90.11,14.34-120.64,42.59-32.66,30-49.22,67.08-49.22,110.19,0,42,15.88,77,47.21,103.86,30.48,26.14,69.53,39.4,116.11,39.4,31.83,0,83.06-13.19,83.06-13.19Z"/><path class="cls-1" d="M1071.94,1235.52l.06,278.06-45.55,41.31,130.81-.37v-69.7l-.11-46.19,10.72,4.66,5.85,2.12a137.35,137.35,0,0,0,46.5,8.12c41.63,0,76.81-14.69,104.64-43.66,27.61-28.75,41.63-65.13,41.63-108.12,0-41.42-13.13-75.74-39-102-27.64-28-61.86-42.23-101.7-42.23-26.09,0-49,5.61-68.5,16.73l-.72-44.25-115.09,34.54,30.5,44.66Zm85.31,53.81c0-17.35,3.06-30.27,8.89-37.45,11.71-14.55,27.12-21.63,47.06-21.63,18.06,0,32.32,6.48,43.56,19.8,12,14.28,17.89,33,17.89,57.23,0,24.38-5.66,43.08-16.78,55.59-10.76,12.05-26.17,17.91-47.19,17.91-15.8,0-33-4.43-51-13.17l-2.45-1.19Z"/><path class="cls-1" d="M1426.33,1149.49a51.64,51.64,0,0,0,37-87.92c-20.14-20.62-53.46-19.71-73-.55a50,50,0,0,0-15.46,36.54,51,51,0,0,0,15,36.87A50.43,50.43,0,0,0,1426.33,1149.49Z"/><polygon class="cls-1" points="1470.24 1172.7 1384.93 1172.44 1384.93 1216.38 1384.66 1411.23 1345.35 1453.96 1470.24 1453.96 1470.24 1172.7"/><path class="cls-1" d="M1838.6,1458.37c44.54,0,82.61-14.44,113.19-42.92,30.94-28.84,46.62-64.78,46.62-106.84s-15.88-78.12-47.24-107.19c-28.22-25.93-63.41-39.08-104.57-39.08s-76.59,11.09-105.28,33c-37.85,29.06-57,68.17-57,116.29,0,42,15,77.42,44.54,105.26C1758.07,1444.41,1795,1458.37,1838.6,1458.37Zm-62.37-154.83c.28-20.81,6-37.18,17.56-49.85,11.42-12.52,25.92-18.6,44.3-18.6,20.6,0,36.65,6.9,49.07,21.08s18.79,32.91,19.32,56.76c0,1.08.1,2.12.1,3.22,0,21.49-5.81,38.16-17.79,51-11.59,12.43-26.53,18.47-45.69,18.47s-34.64-7.11-47.21-21.71c-13.3-15.45-19.77-34.69-19.77-58.85C1776.13,1304.52,1776.23,1304.07,1776.23,1303.54Z"/><polygon class="cls-1" points="2013.95 1382.7 2013.92 1382.7 2013.92 1453.7 2154.89 1453.7 2098.97 1409.28 2099.26 1057.39 1958.68 1057.39 2013.54 1101.36 2013.95 1382.7"/><path class="cls-1" d="M823.32,1429c18.86,16.86,44.2,25.41,75.26,25.41l35.7.32,26.9-34.35c35.81,55.74,93.93,26.84,93.93,26.84l.12-70.52h-19.8l-.12-100.66c0-35.12-4.24-58.35-13.38-73.15-18.33-29.53-53.75-44.52-105.3-44.52h-.42c-21.92,0-43.51,5.4-63.74,13.86l.65,78.57c45.82-22.37,75.41-23.32,90.26-13.49,5.17,3.43,5.61,6.17,5.61,8.7,0,3.18-.71,4.48-3.33,6.09-2.79,1.71-12.42,6.3-41.11,11.64-35.43,6.82-60,14.22-75.39,22.69-25.65,14.37-39.22,38.48-39.22,69.72C790,1384.76,801.19,1409.28,823.32,1429ZM905,1334.56c17.52-4.13,32.09-8,44-11.59v41.34c0,4.31.07,8.28.2,11.92-29.82,9.26-49.34,6-59.85-2.19-5.29-4.17-7.57-9.24-7.57-17C881.78,1351.16,881.78,1340.16,905,1334.56Z"/><polygon class="cls-1" points="1520.52 1163.41 1520.37 1163.57 1520.52 1163.57 1520.52 1163.41"/><path class="cls-1" d="M1527.15,1243.46v98.09c0,12.79.22,22.58.65,30.49a120.62,120.62,0,0,0,2.07,28.88c3.54,17.88,13,34.62,27.45,45.77,33.06,25.57,70.07,5.5,70.07,5.5l19.58-28.71c.57-.77,1.27-1.43,1.81-2.23l24.78-36.75h-61.11V1244.38l69.21,0,.31-65.83h-38.07l-31.45,0v-95.7l-85.28,95.49v.19h-36.32l.18,64.94Z"/><path class="cls-1" d="M277.55,1557.27a50,50,0,0,0-15.46,36.54,51,51,0,0,0,15,36.87,50.43,50.43,0,0,0,36.41,15.06,51.63,51.63,0,0,0,37-87.92C330.42,1537.21,297.1,1538.11,277.55,1557.27Z"/><path class="cls-1" d="M963.68,1819.77v-27.34c0-38.62-13.43-71-39.94-96.41-26.26-25.09-59.69-38.73-99.3-37.82-30.83.71-74.63,15.61-95.51,36.77-31,31.45-47.4,68-47.4,112.77,0,43.67,16.29,79.87,48.42,107.57,24,20.64,53.35,33.36,87.54,38.28a230.17,230.17,0,0,0,32.9,2.41c29.28,0,67.06-4.64,90.87-13.79v-83.53c-23,16.54-48.49,24.57-77.84,24.57-18.21,0-33.25-3.45-45.93-9.91a71.5,71.5,0,0,1-16.91-11.44c-11.12-10.46-18.33-23.76-21.86-40.36h38.76ZM832.38,1726c40-.54,49.16,24.81,49.16,24.81H786.41C794.74,1725.43,832.38,1726,832.38,1726Z"/><polygon class="cls-1" points="358.27 1906.74 358 1709.2 358 1665.26 272.7 1665.53 272.7 1950.21 397.58 1950.21 358.27 1906.74"/><path class="cls-1" d="M512.38,1952.7c26.09,0,49-11.37,68.5-22.49l.06,19.86H696.75l-30.5-44.66-.06-30.73h0l.11-250.1v-69.7l-130.81-.37L581,1595.82v75.84l0-.09-10.72-4.66-5.85-2.12a137.34,137.34,0,0,0-46.5-8.12c-41.63,0-76.81,14.69-104.64,43.66-27.61,28.75-41.63,65.13-41.63,108.12,0,41.42,13.13,75.74,39,102C438.31,1938.49,472.54,1952.7,512.38,1952.7ZM483,1749.45c10.93-12.14,24.65-18,41.94-18,19.4,0,33.81,6.92,45.18,21.52a53.41,53.41,0,0,1,10,23.85c.19,1.18.44,3.61.66,7.31,0,.7.09,1.2.13,2,.24,5,.43,12.12.43,22.6v56.45l-.45.28-5.28,3.33c-12.45,7.84-24.45,11.65-36.65,11.65a78.72,78.72,0,0,1-9.73-.9,65.28,65.28,0,0,1-42.07-21.69C473,1842.1,466,1822.74,466,1798.66,466,1778.27,471.61,1762.18,483,1749.45Z"/><path class="cls-1" d="M1065.1,1681.12l-.72-42.3L949.29,1671.4l30.5,44.66v53.46h0l.21,180.7,130.81.37-45.55-41.31-.11-113.83c.09-16.95,3.12-29.63,8.86-36.7,10.65-13.23,24.54-20,41.92-21.15l49.1,51.21v-121a150.75,150.75,0,0,0-31.42-3.44C1107.51,1664.38,1084.6,1670,1065.1,1681.12Z"/><path class="cls-1" d="M161.33,1731.14c21.76,0,39.05,6.74,52.92,20.59h32.12v-83l-14.63-3.34a278.84,278.84,0,0,0-61.89-7c-49.51,0-90.11,14.34-120.64,42.59C16.56,1731,0,1768.06,0,1811.17c0,42,15.88,77,47.21,103.86,30.48,26.14,69.53,39.4,116.1,39.4,31.83,0,83.06-13.19,83.06-13.19v-82.61c-23.52,15.3-41.7,23.05-65,23.05-26.46,0-47.65-7.68-64.75-23.5-16.71-15.44-24.82-34.42-24.82-58.07,0-21.55,6.08-38.06,18.55-50.48S139.53,1731.14,161.33,1731.14Z"/><path class="cls-1" d="M2683.6,1818.74V1791.4c0-38.62-13.43-71-39.94-96.41-26.26-25.09-59.69-38.73-99.3-37.82-30.83.71-74.63,15.61-95.51,36.77-31,31.45-47.4,68-47.4,112.77,0,43.67,16.29,79.87,48.42,107.57,24,20.64,53.35,33.36,87.54,38.28a230.17,230.17,0,0,0,32.9,2.41c29.28,0,67.06-4.64,90.87-13.79v-83.53c-23,16.54-48.49,24.57-77.84,24.57-18.21,0-33.25-3.45-45.93-9.91a71.5,71.5,0,0,1-16.91-11.44c-11.12-10.46-18.33-23.76-21.86-40.36h38.76Zm-131.29-93.8c40-.54,49.16,24.81,49.16,24.81h-95.14C2514.67,1724.4,2552.31,1724.94,2552.31,1724.94Z"/><path class="cls-1" d="M1719.24,1660.32c-41.18,0-76.59,11.09-105.28,33-37.85,29.06-57,68.17-57,116.29,0,42,15,77.42,44.54,105.26,29.23,27.53,66.15,41.49,109.76,41.49,44.54,0,82.61-14.44,113.19-42.92,30.94-28.84,46.62-64.78,46.62-106.85s-15.88-78.12-47.24-107.19C1795.58,1673.47,1760.4,1660.32,1719.24,1660.32Zm42.19,204.81c-11.59,12.43-26.53,18.47-45.69,18.47s-34.64-7.11-47.21-21.71c-13.3-15.45-19.77-34.69-19.77-58.85,0-21.57,5.78-38.38,17.66-51.38,11.42-12.52,25.92-18.6,44.3-18.6,20.6,0,36.65,6.9,49.07,21.08,13.08,14.92,19.43,34.54,19.43,60C1779.21,1835.63,1773.41,1852.31,1761.42,1865.13Z"/><path class="cls-1" d="M2147.25,1660.62l-85.31.26,0,166.13c-.1,13.83-3.82,24.41-11.45,32.27s-17.69,11.6-30.9,11.6c-19.79,0-28-7.41-32.59-13.16-3.23-4-8.61-14.45-8.79-39.61v-157.5H1853.29l39.3,43.47.24,79.65v42.74c0,33.9,6,59.3,18.2,77.62,19.46,29.43,50.34,44.61,91.64,45.41l.1.1,2.52,0c.24,0,.46,0,.7,0l.12,0,19.37.17,36.38-46.27v45.62h85.58v-43.47l-.19-201.12Z"/><path class="cls-1" d="M1538.07,1826.66v-42.74c0-33.9-6-59.3-18.2-77.62-19.46-29.43-50.34-44.61-91.64-45.41l-.1-.1-2.52,0c-.24,0-.46,0-.7,0l-.12,0-19.37-.17L1369,1706.88l-1.31-152H1242.83l39.3,43.47,1.52,307.54v43.94l85.31-.26,0-166.13c.1-13.83,3.82-24.41,11.45-32.27s17.69-11.6,30.9-11.6c19.8,0,28,7.41,32.59,13.16,3.23,4,8.61,14.45,8.79,39.61v157.5h124.88l-39.3-43.47Z"/><path class="cls-1" d="M2364.66,1794.55a105.91,105.91,0,0,0-28.19-14.83c-16.24-5.87-32.8-10.86-49.31-15.9l-28.44-9.2L2259,1724h54.07l36.7,38.27v-24.83s0-70.87,0-71.24c-18.3-5.12-39.94-7.72-64.29-7.72-36.14,0-65.37,7.44-86.88,22.09-23.42,16-35.8,39.47-35.8,68,0,22.19,7.72,40.46,23,54.3,13.18,12,35.72,23.54,68.87,35.19,35.75,12.65,44.08,17.73,46.06,19.19,8.71,6.21,2.78,14.67-4,19.4-8.74,6.11-19.84,7.64-30.28,7.64-26.8,0-56.74-10-89-29.83v85.81a228.93,228.93,0,0,0,79.48,14.26c39.22,0,71.46-8.66,95.85-25.73,26.09-18.29,39.89-44.36,39.89-75.37C2392.63,1826.95,2382.22,1807.89,2364.66,1794.55Z"/><path class="cls-2" d="M1439.65,327.65V813.53c118.46-17.41,209.69-119.72,209.69-242.93S1558.1,345.06,1439.65,327.65Zm74.63,394.53a29.81,29.81,0,1,1,29.8-29.8A29.81,29.81,0,0,1,1514.28,722.18Zm0-121.79a29.8,29.8,0,1,1,29.8-29.8A29.8,29.8,0,0,1,1514.28,600.4Zm0-121.78a29.81,29.81,0,1,1,29.8-29.81A29.81,29.81,0,0,1,1514.28,478.62Z"/><path class="cls-1" d="M1403.79,253.32H1368L1581.3,0H1367.93V253.32h0V887.86h35.86c175,0,317.27-142.32,317.27-317.27S1578.74,253.32,1403.79,253.32Zm35.86,560.2V327.65c118.46,17.4,209.69,119.72,209.69,242.94S1558.1,796.11,1439.65,813.53Z"/><path class="cls-1" d="M1280.22,253.32c-175,0-317.27,142.33-317.27,317.27s142.32,317.27,317.27,317.27h35.86V253.43l-.27-.11Z"/><circle class="cls-3" cx="1514.28" cy="448.81" r="29.81"/><circle class="cls-3" cx="1514.28" cy="570.6" r="29.81"/><circle class="cls-3" cx="1514.28" cy="692.38" r="29.81"/><path class="cls-3" d="M1034.67,570.59c0,123.22,91.24,225.52,209.69,242.93V327.65C1125.9,345.06,1034.67,447.37,1034.67,570.59Z"/><path class="cls-3" d="M1908.52,2698.68c23.52-15.3,41.7-23.05,65-23.05,26.46,0,47.65,7.68,64.75,23.5,16.71,15.44,24.82,34.42,24.82,58.07,0,21.55-6.08,38.06-18.55,50.48s-29.16,18.49-51,18.49-39.05-6.74-52.92-20.59h-32.12v83l14.63,3.34a278.83,278.83,0,0,0,61.89,7c49.51,0,90.11-14.34,120.64-42.59,32.66-30,49.22-67.08,49.22-110.19,0-42-15.88-77-47.21-103.86-30.48-26.14-69.53-39.4-116.11-39.4-31.83,0-83.06,13.19-83.06,13.19Z"/><path class="cls-3" d="M1611.66,2827l-.06-278.06,45.55-41.31-130.81.37v69.7l.11,46.19-10.72-4.66-5.85-2.12a137.35,137.35,0,0,0-46.5-8.12c-41.63,0-76.81,14.69-104.64,43.66-27.61,28.75-41.63,65.13-41.63,108.12,0,41.42,13.13,75.74,39,102,27.64,28,61.86,42.23,101.7,42.23,26.09,0,49-5.61,68.5-16.73l.72,44.25L1642.17,2898l-30.5-44.66Zm-85.31-53.81c0,17.35-3.06,30.27-8.89,37.45-11.71,14.55-27.12,21.63-47.06,21.63-18.06,0-32.32-6.48-43.56-19.8-12-14.28-17.89-33-17.89-57.23,0-24.38,5.66-43.08,16.78-55.59,10.76-12.05,26.17-17.91,47.19-17.91,15.8,0,33,4.43,51,13.17l2.45,1.19Z"/><path class="cls-3" d="M1257.27,2913.05a51.64,51.64,0,0,0-37,87.92c20.14,20.62,53.46,19.71,73,.55A50,50,0,0,0,1308.7,2965a51,51,0,0,0-15-36.87A50.43,50.43,0,0,0,1257.27,2913.05Z"/><polygon class="cls-3" points="1213.37 2889.84 1298.68 2890.11 1298.68 2846.16 1298.94 2651.32 1338.25 2608.58 1213.37 2608.58 1213.37 2889.84"/><path class="cls-3" d="M845,2604.17c-44.54,0-82.61,14.44-113.19,42.92-30.94,28.84-46.62,64.78-46.62,106.84s15.88,78.12,47.24,107.19c28.22,25.93,63.41,39.08,104.57,39.08s76.59-11.09,105.28-33c37.85-29.06,57-68.17,57-116.29,0-42-15-77.42-44.54-105.26C925.53,2618.14,888.61,2604.17,845,2604.17ZM907.37,2759c-.28,20.81-6,37.18-17.56,49.85-11.42,12.52-25.92,18.6-44.3,18.6-20.6,0-36.65-6.9-49.07-21.08s-18.79-32.91-19.32-56.76c0-1.08-.1-2.12-.1-3.22,0-21.49,5.81-38.16,17.79-51,11.59-12.43,26.53-18.47,45.69-18.47s34.64,7.11,47.21,21.71c13.3,15.45,19.77,34.69,19.77,58.85C907.48,2758,907.38,2758.48,907.37,2759Z"/><polygon class="cls-3" points="669.65 2679.84 669.68 2679.84 669.68 2608.84 528.71 2608.84 584.64 2653.27 584.34 3005.16 724.92 3005.16 670.07 2961.18 669.65 2679.84"/><path class="cls-3" d="M1860.28,2633.58c-18.86-16.86-44.2-25.41-75.26-25.41l-35.7-.32-26.9,34.35c-35.81-55.74-93.93-26.84-93.93-26.84l-.12,70.52h19.8l.12,100.66c0,35.12,4.24,58.35,13.38,73.15,18.33,29.53,53.75,44.52,105.3,44.52h.42c21.92,0,43.51-5.4,63.74-13.86l-.65-78.57c-45.82,22.37-75.41,23.32-90.26,13.49-5.17-3.43-5.61-6.17-5.61-8.7,0-3.18.71-4.48,3.33-6.09,2.79-1.71,12.42-6.3,41.11-11.64,35.43-6.82,60-14.22,75.39-22.69,25.65-14.37,39.22-38.48,39.22-69.72C1893.65,2677.79,1882.41,2653.26,1860.28,2633.58ZM1778.58,2728c-17.52,4.13-32.09,8-44,11.59v-41.34c0-4.31-.07-8.28-.2-11.92,29.82-9.26,49.34-6,59.85,2.19,5.29,4.17,7.57,9.24,7.57,17C1801.83,2711.39,1801.83,2722.39,1778.58,2728Z"/><polygon class="cls-3" points="1163.09 2899.14 1163.23 2898.97 1163.09 2898.97 1163.09 2899.14"/><path class="cls-3" d="M1156.46,2819.09V2721c0-12.79-.22-22.58-.65-30.49a120.62,120.62,0,0,0-2.07-28.88c-3.54-17.88-13-34.62-27.45-45.77-33.06-25.57-70.07-5.5-70.07-5.5l-19.58,28.71c-.57.77-1.27,1.43-1.81,2.23l-24.78,36.75h61.11v140.11l-69.21,0-.31,65.83h38.07l31.45,0v95.7l85.28-95.49V2884h36.32l-.18-64.94Z"/><path class="cls-3" d="M2406.05,2505.27a50,50,0,0,0,15.46-36.54,51,51,0,0,0-15-36.87,50.43,50.43,0,0,0-36.41-15.06,51.63,51.63,0,0,0-37,87.92C2353.18,2525.34,2386.5,2524.43,2406.05,2505.27Z"/><path class="cls-3" d="M1719.93,2242.77v27.34c0,38.62,13.43,71,39.94,96.41,26.26,25.09,59.69,38.73,99.3,37.82,30.83-.71,74.63-15.61,95.51-36.77,31-31.45,47.4-68,47.4-112.77,0-43.67-16.29-79.87-48.42-107.57-24-20.64-53.35-33.36-87.54-38.28a230.17,230.17,0,0,0-32.9-2.41c-29.28,0-67.06,4.64-90.87,13.79v83.53c23-16.54,48.49-24.57,77.84-24.57,18.21,0,33.25,3.45,45.93,9.91a71.5,71.5,0,0,1,16.91,11.44c11.12,10.46,18.33,23.76,21.86,40.36h-38.76Zm131.29,93.8c-40,.54-49.16-24.81-49.16-24.81h95.14C1888.86,2337.12,1851.22,2336.57,1851.22,2336.57Z"/><polygon class="cls-3" points="2325.33 2155.8 2325.6 2353.34 2325.6 2397.28 2410.91 2397.02 2410.91 2112.33 2286.03 2112.33 2325.33 2155.8"/><path class="cls-3" d="M2171.23,2109.85c-26.09,0-49,11.37-68.5,22.49l-.06-19.86H1986.85l30.5,44.66.06,30.73h0l-.11,250.1v69.7l130.81.37-45.55-41.31v-75.84l0,.09,10.72,4.66,5.85,2.12a137.34,137.34,0,0,0,46.5,8.12c41.63,0,76.81-14.69,104.64-43.66,27.61-28.75,41.63-65.13,41.63-108.12,0-41.42-13.13-75.74-39-102C2245.29,2124.06,2211.06,2109.85,2171.23,2109.85Zm29.33,203.25c-10.93,12.14-24.65,18-41.94,18-19.4,0-33.81-6.92-45.18-21.52a53.41,53.41,0,0,1-10-23.85c-.19-1.18-.44-3.61-.66-7.31,0-.7-.09-1.2-.13-2-.24-5-.43-12.12-.43-22.6v-56.45l.45-.28,5.28-3.33c12.45-7.84,24.45-11.65,36.65-11.65a78.72,78.72,0,0,1,9.73.9,65.28,65.28,0,0,1,42.07,21.69c14.28,15.74,21.22,35.1,21.22,59.18C2217.56,2284.27,2212,2300.37,2200.56,2313.09Z"/><path class="cls-3" d="M1618.51,2381.43l.72,42.3,115.09-32.59-30.5-44.66V2293h0l-.21-180.7-130.81-.37,45.55,41.31.11,113.83c-.09,16.95-3.12,29.63-8.86,36.7-10.65,13.23-24.54,20-41.92,21.15l-49.1-51.21v121a150.75,150.75,0,0,0,31.42,3.44C1576.1,2398.16,1599,2392.55,1618.51,2381.43Z"/><path class="cls-3" d="M2522.27,2331.4c-21.76,0-39.05-6.74-52.92-20.59h-32.12v83l14.63,3.34a278.84,278.84,0,0,0,61.89,7c49.51,0,90.11-14.34,120.64-42.59,32.66-30,49.22-67.08,49.22-110.19,0-42-15.88-77-47.21-103.86-30.48-26.14-69.53-39.4-116.1-39.4-31.83,0-83.06,13.19-83.06,13.19v82.61c23.52-15.3,41.7-23.05,65-23.05,26.46,0,47.65,7.68,64.75,23.5,16.71,15.44,24.82,34.42,24.82,58.07,0,21.55-6.08,38.06-18.55,50.48S2544.08,2331.4,2522.27,2331.4Z"/><path class="cls-3" d="M0,2243.81v27.34c0,38.62,13.43,71,39.94,96.41,26.26,25.09,59.69,38.73,99.3,37.82,30.83-.71,74.63-15.61,95.51-36.77,31-31.45,47.4-68,47.4-112.77,0-43.67-16.29-79.87-48.42-107.57-24-20.64-53.35-33.36-87.54-38.28a230.17,230.17,0,0,0-32.9-2.41c-29.28,0-67.06,4.64-90.87,13.79v83.53c23-16.54,48.49-24.57,77.84-24.57,18.21,0,33.25,3.45,45.93,9.91a71.5,71.5,0,0,1,16.91,11.44c11.12,10.46,18.33,23.76,21.86,40.36H146.2Zm131.29,93.8c-40,.54-49.16-24.81-49.16-24.81h95.14C168.94,2338.15,131.29,2337.61,131.29,2337.61Z"/><path class="cls-3" d="M964.37,2402.22c41.18,0,76.59-11.09,105.28-33,37.85-29.06,57-68.17,57-116.29,0-42-15-77.42-44.54-105.26-29.23-27.53-66.15-41.49-109.76-41.49-44.54,0-82.61,14.44-113.19,42.92-30.94,28.84-46.62,64.78-46.62,106.85s15.88,78.12,47.24,107.19C888,2389.08,923.21,2402.22,964.37,2402.22Zm-42.19-204.81c11.59-12.43,26.53-18.47,45.69-18.47s34.64,7.11,47.21,21.71c13.3,15.45,19.77,34.69,19.77,58.85,0,21.57-5.78,38.38-17.66,51.38-11.42,12.52-25.92,18.6-44.3,18.6-20.6,0-36.65-6.9-49.07-21.08-13.08-14.92-19.43-34.54-19.43-60C904.39,2226.91,910.2,2210.24,922.18,2197.41Z"/><path class="cls-3" d="M536.36,2401.92l85.31-.26,0-166.13c.1-13.83,3.82-24.41,11.45-32.27s17.69-11.6,30.9-11.6c19.79,0,28,7.41,32.59,13.16,3.23,4,8.61,14.45,8.79,39.61v157.5H830.31L791,2358.46l-.24-79.65v-42.74c0-33.9-6-59.3-18.2-77.62-19.46-29.43-50.34-44.61-91.64-45.41l-.1-.1-2.52,0c-.24,0-.46,0-.7,0l-.12,0-19.37-.17L621.73,2159V2113.4H536.17v43.47l.19,201.12Z"/><path class="cls-3" d="M1145.53,2235.88v42.74c0,33.9,6,59.3,18.2,77.62,19.46,29.43,50.34,44.61,91.64,45.41l.1.1,2.52,0c.24,0,.46,0,.7,0l.12,0,19.37.17,36.38-46.27,1.31,152h124.88l-39.3-43.47-1.52-307.54v-43.94l-85.31.26,0,166.13c-.1,13.83-3.82,24.41-11.45,32.27s-17.69,11.6-30.9,11.6c-19.8,0-28-7.41-32.59-13.16-3.23-4-8.61-14.45-8.79-39.61v-157.5H1106l39.3,43.47Z"/><path class="cls-3" d="M318.95,2268a105.91,105.91,0,0,0,28.19,14.83c16.24,5.87,32.8,10.86,49.31,15.9l28.44,9.2-.28,30.61H370.55l-36.7-38.27v24.83s0,70.87,0,71.24c18.3,5.12,39.94,7.72,64.29,7.72,36.14,0,65.37-7.44,86.88-22.09,23.42-16,35.8-39.47,35.8-68,0-22.19-7.72-40.46-23-54.3-13.18-12-35.72-23.54-68.87-35.19-35.75-12.65-44.08-17.73-46.06-19.19-8.71-6.21-2.78-14.67,4-19.4,8.74-6.11,19.84-7.64,30.28-7.64,26.8,0,56.74,10,89,29.83v-85.81A228.93,228.93,0,0,0,426.71,2108c-39.22,0-71.46,8.66-95.85,25.73C304.77,2152,291,2178.1,291,2209.12,291,2235.6,301.38,2254.66,318.95,2268Z"/><path class="cls-2" d="M1244,3734.89V3249c-118.46,17.41-209.69,119.72-209.69,242.93S1125.5,3717.49,1244,3734.89Zm-74.63-394.53a29.81,29.81,0,1,1-29.8,29.8A29.81,29.81,0,0,1,1169.32,3340.36Zm0,121.79a29.8,29.8,0,1,1-29.8,29.8A29.8,29.8,0,0,1,1169.32,3462.15Zm0,121.78a29.81,29.81,0,1,1-29.8,29.81A29.81,29.81,0,0,1,1169.32,3583.93Z"/><path class="cls-3" d="M1279.81,3809.22h35.83l-213.34,253.32h213.36V3809.22h0V3174.68h-35.86c-175,0-317.27,142.32-317.27,317.27S1104.86,3809.22,1279.81,3809.22ZM1244,3249v485.87c-118.46-17.4-209.69-119.72-209.69-242.94S1125.5,3266.43,1244,3249Z"/><path class="cls-3" d="M1403.38,3809.22c175,0,317.27-142.33,317.27-317.27s-142.32-317.27-317.27-317.27h-35.86v634.43l.27.11Z"/><circle class="cls-1" cx="1169.33" cy="3613.73" r="29.81"/><circle class="cls-1" cx="1169.33" cy="3491.95" r="29.81"/><circle class="cls-1" cx="1169.33" cy="3370.17" r="29.81"/><path class="cls-1" d="M1648.93,3492c0-123.22-91.24-225.52-209.69-242.93v485.87C1557.7,3717.49,1648.93,3615.17,1648.93,3492Z"/></svg>