<svg id="Layer_1" data-name="Layer 1" xmlns="http://www.w3.org/2000/svg" viewBox="0 0 672.12 984.9"><defs><style>.cls-1,.cls-5,.cls-6{fill:none;}.cls-2{fill:#2733ff;}.cls-3{fill:#fff;}.cls-4{fill:#ff2600;}.cls-5{stroke:#dd0031;}.cls-5,.cls-6{stroke-linecap:round;stroke-linejoin:round;stroke-width:0;}.cls-6{stroke:#003da6;}</style></defs><title>flipflop</title><path class="cls-1" d="M288.25,837.66h0q0-.18,0-.36Q288.25,837.47,288.25,837.66Z"/><path class="cls-1" d="M217.58,645a13.94,13.94,0,0,0-10.8,4.37c-2.83,3-4.2,7-4.2,12,0,.26,0,.51,0,.76.13,5.64,1.61,10,4.57,13.42a14.53,14.53,0,0,0,11.6,5,13.39,13.39,0,0,0,10.47-4.39c2.74-3,4.08-6.87,4.15-11.78,0-.13,0-.23,0-.36,0-5.71-1.53-10.26-4.67-13.91A14,14,0,0,0,217.58,645Z"/><path class="cls-1" d="M292.88,831q.32-.12.66-.21Q293.2,830.92,292.88,831Z"/><path class="cls-1" d="M295.3,815.92a7,7,0,0,1-6.82-5.28,7,7,0,0,0,13.64,0A7,7,0,0,1,295.3,815.92Z"/><path class="cls-1" d="M40.91,559H38.36s2.16,6,11.62,5.86c0,0,8.9.13,10.87-5.86H40.91Z"/><path class="cls-1" d="M298.65,872.63a7,7,0,0,0,3.69-6.19h0A7,7,0,0,1,298.65,872.63Z"/><path class="cls-1" d="M297.06,830.84a7.1,7.1,0,0,0-3.52,0,7.1,7.1,0,0,1,3.52,0Z"/><path class="cls-1" d="M302.34,837.66q0-.18,0-.36,0,.18,0,.36Z"/><path class="cls-1" d="M297.06,830.84q.34.09.66.21Q297.4,830.92,297.06,830.84Z"/><path class="cls-1" d="M229.13,337.12c2.48,1.94,7.1,2.71,14.15.52,0-.86,0-1.8,0-2.82v-9.77c-2.81.85-6.25,1.76-10.39,2.74-5.5,1.32-5.5,3.92-5.5,5.32A4.6,4.6,0,0,0,229.13,337.12Z"/><path class="cls-1" d="M144,456.59a18.61,18.61,0,0,0,2.3.21A16,16,0,0,0,155,454l1.25-.79.11-.07V439.85c0-2.48,0-4.17-.1-5.34,0-.19,0-.31,0-.48-.05-.87-.11-1.45-.16-1.73a13.42,13.42,0,0,0-23-6.46c-2.7,3-4,6.81-4,11.63,0,5.69,1.64,10.27,5,14A15.43,15.43,0,0,0,144,456.59Z"/><path class="cls-1" d="M424.43,457.55c4.53,0,8.06-1.43,10.8-4.37s4.2-7,4.2-12c0-6-1.5-10.65-4.59-14.18a14.53,14.53,0,0,0-11.6-5,13.4,13.4,0,0,0-10.47,4.39c-2.81,3.07-4.17,7-4.17,12.14,0,5.71,1.53,10.26,4.67,13.91A14,14,0,0,0,424.43,457.55Z"/><path class="cls-1" d="M248.87,562.92a13.39,13.39,0,0,0,10.47-4.39c2.81-3.07,4.17-7,4.17-12.14,0-5.71-1.53-10.26-4.67-13.91a14,14,0,0,0-11.16-5.13c-4.53,0-8.06,1.43-10.8,4.37s-4.2,7-4.2,12c0,6,1.5,10.65,4.59,14.18A14.53,14.53,0,0,0,248.87,562.92Z"/><path class="cls-1" d="M215.67,420.3s-8.9-.13-10.87,5.86h22.48S225.12,420.17,215.67,420.3Z"/><path class="cls-1" d="M294.54,308.25c-1.38,1.7-2.1,4.75-2.1,8.85v18.22l.58.28a27.9,27.9,0,0,0,12,3.11c5,0,8.61-1.38,11.15-4.23s4-7.38,4-13.14-1.38-10.15-4.23-13.53a12.73,12.73,0,0,0-10.3-4.68A13.42,13.42,0,0,0,294.54,308.25Z"/><path class="cls-1" d="M298.8,860.33a7.05,7.05,0,0,0-7,0,7.05,7.05,0,0,1,7,0Z"/><path class="cls-1" d="M454.53,339.86a13.94,13.94,0,0,0,10.8-4.37c2.83-3,4.2-7,4.2-12,0-.26,0-.51,0-.76-.12-5.64-1.61-10-4.57-13.42a14.53,14.53,0,0,0-11.6-5,13.39,13.39,0,0,0-10.47,4.39c-2.74,3-4.08,6.87-4.15,11.78,0,.13,0,.23,0,.36,0,5.71,1.53,10.26,4.67,13.91A14,14,0,0,0,454.53,339.86Z"/><path class="cls-1" d="M456.45,564.6s8.9.13,10.87-5.86H444.83S447,564.73,456.45,564.6Z"/><path class="cls-1" d="M443,647.78c-2.48-1.94-7.1-2.71-14.15-.52,0,.86,0,1.8,0,2.82v9.77c2.81-.85,6.25-1.76,10.39-2.74,5.5-1.32,5.5-3.92,5.5-5.32A4.6,4.6,0,0,0,443,647.78Z"/><path class="cls-1" d="M312.93,780.24h0a57.74,57.74,0,0,0-26.26,11A57.75,57.75,0,0,1,312.93,780.24Z"/><path class="cls-1" d="M622.14,420.05s-8.9-.13-10.87,5.86h22.48S631.6,419.93,622.14,420.05Z"/><path class="cls-1" d="M528.07,528.31a18.61,18.61,0,0,0-2.3-.21,16,16,0,0,0-8.66,2.75l-1.25.79-.11.07V545c0,2.48,0,4.17.1,5.34,0,.19,0,.31,0,.48.05.87.11,1.45.16,1.73a13.42,13.42,0,0,0,23,6.46c2.7-3,4-6.81,4-11.63,0-5.69-1.64-10.27-5-14A15.43,15.43,0,0,0,528.07,528.31Z"/><path class="cls-1" d="M377.57,676.65c1.38-1.7,2.1-4.75,2.1-8.85V649.58l-.58-.28a27.9,27.9,0,0,0-12-3.11c-5,0-8.61,1.38-11.15,4.23s-4,7.38-4,13.14,1.38,10.15,4.23,13.53a12.73,12.73,0,0,0,10.29,4.68A13.42,13.42,0,0,0,377.57,676.65Z"/><path class="cls-1" d="M291.94,872.63a7,7,0,0,1-3.69-6.19h0A7,7,0,0,0,291.94,872.63Z"/><path class="cls-2" d="M155.06,348.05c7.2,6.18,16.43,9.31,27.44,9.31,7.52,0,19.63-3.12,19.63-3.12V334.72c-5.56,3.62-9.86,5.45-15.36,5.45-6.25,0-11.26-1.82-15.3-5.55a17.72,17.72,0,0,1-5.87-13.72c0-5.09,1.44-9,4.38-11.93s6.89-4.37,12-4.37a16.79,16.79,0,0,1,12.51,4.87h7.59V289.84l-3.46-.79A65.89,65.89,0,0,0,184,287.4c-11.7,0-21.3,3.39-28.51,10.07a34.19,34.19,0,0,0-11.63,26A31,31,0,0,0,155.06,348.05Z"/><path class="cls-2" d="M292.44,289.9l-.17-10.46-27.2,8.16,7.21,10.56V370.1l-10.77,9.76,30.91-.09V363.3l0-10.92,2.53,1.1,1.38.5a32.46,32.46,0,0,0,11,1.92,33,33,0,0,0,24.73-10.32c6.53-6.8,9.84-15.39,9.84-25.55,0-9.79-3.1-17.9-9.22-24.11a32.62,32.62,0,0,0-24-10A32.17,32.17,0,0,0,292.44,289.9ZM316,307.82c2.84,3.38,4.23,7.8,4.23,13.53s-1.34,10.18-4,13.14-6.18,4.23-11.15,4.23a27.9,27.9,0,0,1-12-3.11l-.58-.28V317.11c0-4.1.72-7.15,2.1-8.85a13.42,13.42,0,0,1,11.12-5.11A12.73,12.73,0,0,1,316,307.82Z"/><path class="cls-2" d="M356,284.06a12.2,12.2,0,0,0,8.75-20.78,12.32,12.32,0,0,0-17.25-.13,11.81,11.81,0,0,0-3.65,8.64,12,12,0,0,0,3.55,8.71A11.92,11.92,0,0,0,356,284.06Z"/><polygon class="cls-2" points="366.41 356.01 366.41 289.54 346.25 289.48 346.25 299.87 346.19 345.91 336.9 356.01 366.41 356.01"/><path class="cls-2" d="M427.53,347.25c6.91,6.51,15.63,9.81,25.94,9.81,10.53,0,19.52-3.41,26.75-10.14a34.38,34.38,0,0,0-.15-50.58c-6.67-6.13-15-9.24-24.71-9.24s-18.1,2.62-24.88,7.8C421.54,301.76,417,311,417,322.37A32.89,32.89,0,0,0,427.53,347.25Zm11.2-26.79c.07-4.92,1.41-8.79,4.15-11.78a13.39,13.39,0,0,1,10.47-4.39,14.53,14.53,0,0,1,11.6,5c3,3.37,4.44,7.78,4.57,13.42,0,.26,0,.5,0,.76,0,5.08-1.37,9-4.2,12a15.09,15.09,0,0,1-22-.76c-3.14-3.65-4.67-8.2-4.67-13.91C438.7,320.7,438.73,320.59,438.73,320.46Z"/><polygon class="cls-2" points="494.91 339.17 494.9 339.17 494.9 355.95 528.22 355.95 515 345.45 515.07 262.29 481.85 262.29 494.81 272.68 494.91 339.17"/><path class="cls-2" d="M213.52,350.11c4.46,4,10.45,6,17.79,6l8.44.08,6.36-8.12c8.46,13.17,22.2,6.34,22.2,6.34l0-16.67h-4.68l0-23.79c0-8.3-1-13.79-3.16-17.29-4.33-7-12.7-10.52-24.89-10.52h-.1a39.41,39.41,0,0,0-15.06,3.28l.15,18.57c10.83-5.29,17.82-5.51,21.33-3.19,1.22.81,1.33,1.46,1.33,2.06a1.38,1.38,0,0,1-.79,1.44c-.66.41-2.94,1.49-9.72,2.75-8.37,1.61-14.19,3.36-17.82,5.36-6.06,3.4-9.27,9.09-9.27,16.48A22.27,22.27,0,0,0,213.52,350.11Zm19.31-22.31c4.14-1,7.59-1.88,10.39-2.74v9.77c0,1,0,2,0,2.82-7,2.19-11.66,1.42-14.15-.52a4.6,4.6,0,0,1-1.79-4C227.34,331.72,227.34,329.12,232.83,327.79Z"/><polygon class="cls-2" points="378.26 287.38 378.3 287.38 378.3 287.35 378.26 287.38"/><path class="cls-2" d="M371.32,306.26h8.54v23.18c0,3,.05,5.34.15,7.21a28.52,28.52,0,0,0,.49,6.83A18.11,18.11,0,0,0,387,354.29c7.81,6,16.56,1.3,16.56,1.3l4.63-6.79c.13-.18.3-.34.43-.53l5.86-8.69H400V306.48h16.36l.07-15.56H400V268.31l-20.16,22.57v0h-8.58Z"/><path class="cls-2" d="M93,401.34a12.2,12.2,0,0,0,8.75-20.78,12.32,12.32,0,0,0-17.25-.13,11.81,11.81,0,0,0-3.65,8.64,12,12,0,0,0,3.55,8.71A11.92,11.92,0,0,0,93,401.34Z"/><path class="cls-2" d="M237.26,413.22a31.89,31.89,0,0,0-23.47-8.94c-7.29.17-17.64,3.69-22.57,8.69C183.88,420.41,180,429,180,439.62c0,10.32,3.85,18.88,11.44,25.42a39.65,39.65,0,0,0,20.69,9,54.39,54.39,0,0,0,7.78.57c6.92,0,15.85-1.1,21.48-3.26V451.66a30.46,30.46,0,0,1-18.4,5.81,23.51,23.51,0,0,1-10.86-2.34,16.88,16.88,0,0,1-4-2.7,17.7,17.7,0,0,1-5.17-9.54h9.16l34.55-.42V436C246.69,426.88,243.52,419.21,237.26,413.22Zm-12.52,12.94H204.8c2-6,10.87-5.86,10.87-5.86,9.46-.13,11.62,5.86,11.62,5.86Z"/><polygon class="cls-2" points="83.39 406.01 83.39 473.29 112.91 473.29 103.62 463.02 103.56 416.34 103.56 405.95 83.39 406.01"/><path class="cls-2" d="M140,473.88c6.17,0,11.58-2.69,16.19-5.32v4.69h27.37L176.4,462.7v-7.26h0l0-59.11V379.86l-30.91-.09,10.77,9.76v17.9l-2.53-1.1-1.38-.5a32.46,32.46,0,0,0-11-1.92,33,33,0,0,0-24.73,10.32c-6.53,6.79-9.84,15.39-9.84,25.55,0,9.79,3.1,17.9,9.22,24.11A32.62,32.62,0,0,0,140,473.88Zm-6.93-48a13.17,13.17,0,0,1,23,6.46c0,.28.1.85.16,1.73,0,.17,0,.28,0,.48.06,1.17.1,2.86.1,5.34v13.34l-.11.07L155,454a16,16,0,0,1-8.66,2.75,18.61,18.61,0,0,1-2.3-.21,15.43,15.43,0,0,1-9.94-5.13c-3.38-3.72-5-8.29-5-14C129.09,432.66,130.4,428.85,133.11,425.85Z"/><path class="cls-2" d="M282.67,423.05l11.6,12.1v-28.6a35.62,35.62,0,0,0-7.42-.81,32.17,32.17,0,0,0-16.19,4l-.17-10-27.2,7.7L250.5,418v12.64h0l.05,42.71,30.91.09-10.77-9.76,0-26.9c0-4,.74-7,2.09-8.67A13.2,13.2,0,0,1,282.67,423.05Z"/><path class="cls-2" d="M30.1,465c7.2,6.18,16.43,9.31,27.44,9.31,7.52,0,19.63-3.12,19.63-3.12V451.65c-5.56,3.62-9.86,5.45-15.36,5.45-6.25,0-11.26-1.82-15.3-5.55a17.72,17.72,0,0,1-5.87-13.72c0-5.09,1.44-9,4.38-11.93s6.89-4.37,12-4.37a16.79,16.79,0,0,1,12.51,4.87h7.59V406.77L73.72,406a65.91,65.91,0,0,0-14.63-1.65c-11.7,0-21.3,3.39-28.51,10.07a34.19,34.19,0,0,0-11.63,26A31,31,0,0,0,30.1,465Z"/><path class="cls-2" d="M643.73,413A31.89,31.89,0,0,0,620.27,404c-7.29.17-17.64,3.69-22.57,8.69-7.34,7.43-11.2,16.06-11.2,26.65,0,10.32,3.85,18.88,11.44,25.42a39.66,39.66,0,0,0,20.69,9,54.39,54.39,0,0,0,7.78.57c6.92,0,15.85-1.1,21.48-3.26V451.42a30.47,30.47,0,0,1-18.4,5.81,23.51,23.51,0,0,1-10.86-2.34,16.9,16.9,0,0,1-4-2.7,17.7,17.7,0,0,1-5.17-9.54h9.16l34.55-.42v-6.46C653.17,426.63,650,419,643.73,413Zm-12.52,12.94H611.28c2-6,10.87-5.86,10.87-5.86,9.46-.13,11.62,5.86,11.62,5.86Z"/><path class="cls-2" d="M386.9,440.06a32.89,32.89,0,0,0,10.53,24.88c6.91,6.51,15.63,9.81,25.94,9.81,10.53,0,19.52-3.41,26.75-10.14A34.38,34.38,0,0,0,450,414c-6.67-6.13-15-9.24-24.71-9.24s-18.1,2.62-24.88,7.8C391.43,419.45,386.9,428.69,386.9,440.06Zm25.88-13.69A13.4,13.4,0,0,1,423.24,422a14.53,14.53,0,0,1,11.6,5c3.09,3.53,4.59,8.16,4.59,14.18,0,5.08-1.37,9-4.2,12s-6.27,4.37-10.8,4.37a14,14,0,0,1-11.16-5.13c-3.14-3.65-4.67-8.2-4.67-13.91C408.6,433.42,410,429.44,412.78,426.37Z"/><path class="cls-2" d="M526.46,473V462.77l0-47.53V404.85l-20.16.06v39.26c0,3.27-.9,5.77-2.71,7.63a9.62,9.62,0,0,1-7.3,2.74c-4.68,0-6.62-1.75-7.7-3.11-.76-.94-2-3.41-2.08-9.36V404.85H456.94l9.29,10.27.06,18.82v10.1c0,8,1.41,14,4.3,18.34,4.6,7,11.9,10.54,21.66,10.73l0,0h.79l4.58,0,8.6-10.94V473Z"/><path class="cls-2" d="M391.79,473.19l-9.29-10.27-.06-18.82V434c0-8-1.41-14-4.3-18.34-4.6-7-11.9-10.54-21.66-10.73l0,0h-.79l-4.58,0-8.6,10.94-.31-35.93H312.67L322,390.12l.36,83.07,20.16-.06V433.87c0-3.27.9-5.77,2.71-7.63a9.62,9.62,0,0,1,7.3-2.74c4.68,0,6.62,1.75,7.7,3.11.76.94,2,3.41,2.08,9.36v37.22Z"/><path class="cls-2" d="M535.52,438.47c3.11,2.84,8.44,5.56,16.28,8.32,8.45,3,10.42,4.19,10.89,4.53,2.06,1.47.66,3.47-.95,4.59a12.4,12.4,0,0,1-7.16,1.81c-6.33,0-13.41-2.37-21-7v20.28a54.1,54.1,0,0,0,18.78,3.37c9.27,0,16.89-2,22.65-6.08a21,21,0,0,0,9.43-17.81c0-6.26-2.46-10.76-6.61-13.91a25,25,0,0,0-6.66-3.51c-3.84-1.39-7.75-2.57-11.65-3.76l-6.72-2.17.07-7.24H565.6l8.67,9V423s0-16.75,0-16.84a56.92,56.92,0,0,0-15.19-1.82c-8.54,0-15.45,1.76-20.53,5.22a18.68,18.68,0,0,0-8.46,16.06A16.6,16.6,0,0,0,535.52,438.47Z"/><path class="cls-3" d="M408.74,147.24a58.12,58.12,0,0,0-49.56-57.41V204.66c1.17-.17,2.34-.38,3.49-.63A58.13,58.13,0,0,0,408.74,147.24Zm-31.92-35.82a7,7,0,1,1-7,7A7,7,0,0,1,376.82,111.42Zm-7,35.83a7,7,0,1,1,14.09,0h0a7,7,0,0,1-14.09,0Zm7,21.74a7,7,0,1,1-7,7A7,7,0,0,1,376.82,169Z"/><path class="cls-2" d="M425.69,147.24a75.06,75.06,0,0,0-75-75h-8.47l50.42-59.87H342.23V72.26h0v150h8.47A75.06,75.06,0,0,0,425.69,147.24ZM359.18,89.83A58,58,0,0,1,362.67,204c-1.15.24-2.31.45-3.49.63Z"/><path class="cls-2" d="M321.5,222.22H330V72.29l-.06,0H321.5a75,75,0,1,0,0,150ZM313,89.83V204.66a58,58,0,0,1,0-114.83Z"/><path class="cls-4" d="M370.09,120.56a7,7,0,0,0,13.69-1,7,7,0,1,0-13.93,0A7,7,0,0,0,370.09,120.56Z"/><path class="cls-5" d="M383.13,121.59a7,7,0,0,0,.42-1"/><path class="cls-5" d="M370.51,121.59a7,7,0,0,1-.42-1"/><path class="cls-5" d="M370.09,120.56a7,7,0,0,1-.24-1"/><path class="cls-5" d="M383.55,120.56a7,7,0,0,0,.24-1"/><path class="cls-4" d="M376.82,154.29a7,7,0,0,0,7-7h0a7,7,0,1,0-14.09,0h0A7,7,0,0,0,376.82,154.29Z"/><circle class="cls-4" cx="376.82" cy="176.03" r="7.04"/><path class="cls-4" d="M313,204.66V89.83a58,58,0,0,0,0,114.83Z"/><path class="cls-4" d="M517.06,636.85c-7.2-6.18-16.43-9.31-27.44-9.31-7.52,0-19.63,3.12-19.63,3.12v19.52c5.56-3.62,9.86-5.45,15.36-5.45,6.25,0,11.26,1.82,15.3,5.55A17.72,17.72,0,0,1,506.52,664c0,5.09-1.44,9-4.38,11.93s-6.89,4.37-12,4.37a16.79,16.79,0,0,1-12.51-4.87H470v19.62l3.46.79a65.89,65.89,0,0,0,14.63,1.65c11.7,0,21.3-3.39,28.51-10.07a34.19,34.19,0,0,0,11.63-26A31,31,0,0,0,517.06,636.85Z"/><path class="cls-4" d="M379.68,695l.17,10.46,27.2-8.16-7.21-10.56V614.8L410.59,605l-30.91.09V621.6l0,10.92-2.53-1.1-1.38-.5a32.46,32.46,0,0,0-11-1.92,33,33,0,0,0-24.73,10.32c-6.53,6.79-9.84,15.39-9.84,25.55,0,9.79,3.1,17.9,9.22,24.11a32.62,32.62,0,0,0,24,10A32.17,32.17,0,0,0,379.68,695Zm-23.52-17.92c-2.84-3.38-4.23-7.8-4.23-13.53s1.34-10.18,4-13.14,6.18-4.23,11.15-4.23a27.9,27.9,0,0,1,12,3.11l.58.28V667.8c0,4.1-.72,7.15-2.1,8.85a13.42,13.42,0,0,1-11.12,5.11A12.73,12.73,0,0,1,356.16,677.08Z"/><path class="cls-4" d="M316.08,700.84a12.2,12.2,0,0,0-8.75,20.78,12.32,12.32,0,0,0,17.25.13,11.81,11.81,0,0,0,3.65-8.64,12,12,0,0,0-3.55-8.71A11.92,11.92,0,0,0,316.08,700.84Z"/><polygon class="cls-4" points="305.7 628.89 305.7 695.36 325.87 695.42 325.87 685.04 325.93 638.99 335.22 628.89 305.7 628.89"/><path class="cls-4" d="M244.59,637.65c-6.91-6.51-15.63-9.81-25.94-9.81-10.53,0-19.52,3.41-26.75,10.14a34.38,34.38,0,0,0,.15,50.58c6.67,6.13,15,9.24,24.71,9.24s18.1-2.62,24.88-7.8c8.95-6.87,13.48-16.11,13.48-27.48A32.89,32.89,0,0,0,244.59,637.65Zm-11.2,26.79c-.07,4.92-1.41,8.79-4.15,11.78a13.39,13.39,0,0,1-10.47,4.39,14.53,14.53,0,0,1-11.6-5c-3-3.37-4.44-7.78-4.57-13.42,0-.26,0-.5,0-.76,0-5.08,1.37-9,4.2-12a15.09,15.09,0,0,1,22,.76c3.14,3.65,4.67,8.2,4.67,13.91C233.41,664.21,233.39,664.31,233.39,664.44Z"/><polygon class="cls-4" points="177.21 645.73 177.21 645.73 177.21 628.95 143.9 628.95 157.12 639.45 157.05 722.61 190.27 722.61 177.31 712.22 177.21 645.73"/><path class="cls-4" d="M458.59,634.79c-4.46-4-10.45-6-17.79-6l-8.44-.08L426,636.83c-8.46-13.17-22.2-6.34-22.2-6.34l0,16.67h4.68l0,23.79c0,8.3,1,13.79,3.16,17.29,4.33,7,12.7,10.52,24.89,10.52h.1a39.41,39.41,0,0,0,15.06-3.27l-.15-18.57c-10.83,5.29-17.82,5.51-21.33,3.19-1.22-.81-1.33-1.46-1.33-2.06a1.38,1.38,0,0,1,.79-1.44c.66-.41,2.94-1.49,9.72-2.75,8.37-1.61,14.19-3.36,17.82-5.36,6.06-3.4,9.27-9.09,9.27-16.48A22.27,22.27,0,0,0,458.59,634.79Zm-19.31,22.31c-4.14,1-7.59,1.89-10.39,2.74v-9.77c0-1,0-2,0-2.82,7-2.19,11.66-1.42,14.15.52a4.6,4.6,0,0,1,1.79,4C444.78,653.18,444.78,655.78,439.28,657.11Z"/><polygon class="cls-2" points="293.86 697.52 293.82 697.52 293.82 697.56 293.86 697.52"/><path class="cls-4" d="M300.8,678.64h-8.54V655.46c0-3-.05-5.34-.15-7.21a28.52,28.52,0,0,0-.49-6.83,18.11,18.11,0,0,0-6.49-10.82c-7.81-6-16.56-1.3-16.56-1.3l-4.63,6.79c-.13.18-.3.34-.43.53l-5.86,8.69H272.1v33.11H255.74L255.67,694H272.1V716.6L292.26,694v0h8.58Z"/><path class="cls-4" d="M579.08,583.56a12.2,12.2,0,0,0-8.75,20.78,12.32,12.32,0,0,0,17.25.13,11.81,11.81,0,0,0,3.65-8.64,12,12,0,0,0-3.55-8.71A11.92,11.92,0,0,0,579.08,583.56Z"/><path class="cls-4" d="M434.86,571.68a31.89,31.89,0,0,0,23.47,8.94c7.29-.17,17.64-3.69,22.57-8.69,7.34-7.43,11.2-16.06,11.2-26.65,0-10.32-3.85-18.88-11.44-25.42a39.65,39.65,0,0,0-20.69-9,54.39,54.39,0,0,0-7.78-.57c-6.92,0-15.85,1.1-21.48,3.26v19.74a30.47,30.47,0,0,1,18.4-5.81A23.51,23.51,0,0,1,460,529.78a16.9,16.9,0,0,1,4,2.7,17.7,17.7,0,0,1,5.17,9.54H460l-34.55.42v6.46C425.42,558,428.6,565.69,434.86,571.68Zm12.52-12.94h19.94c-2,6-10.87,5.86-10.87,5.86-9.46.13-11.62-5.86-11.62-5.86Z"/><polygon class="cls-4" points="588.72 578.89 588.72 511.61 559.21 511.61 568.5 521.88 568.56 568.57 568.56 578.95 588.72 578.89"/><path class="cls-4" d="M532.08,511c-6.17,0-11.58,2.69-16.19,5.32v-4.69H488.51l7.21,10.56v7.26h0l0,59.11V605l30.91.09-10.77-9.76v-17.9l2.53,1.1,1.38.5a32.45,32.45,0,0,0,11,1.92,33,33,0,0,0,24.73-10.32c6.53-6.79,9.84-15.39,9.84-25.55,0-9.79-3.1-17.9-9.22-24.11A32.62,32.62,0,0,0,532.08,511Zm6.93,48a13.17,13.17,0,0,1-23-6.46c0-.28-.1-.85-.16-1.73,0-.17,0-.28,0-.48-.06-1.17-.1-2.86-.1-5.34V531.71l.11-.07,1.25-.79a16,16,0,0,1,8.66-2.75,18.61,18.61,0,0,1,2.3.21,15.43,15.43,0,0,1,9.94,5.13c3.38,3.72,5,8.29,5,14C543,552.24,541.71,556,539,559.05Z"/><path class="cls-4" d="M401.45,575.2l.17,10,27.2-7.7-7.21-10.56V554.31h0l-.05-42.71-30.91-.09,10.77,9.76,0,26.9c0,4-.74,7-2.09,8.67a13.2,13.2,0,0,1-9.91,5l-11.6-12.1v28.6a35.62,35.62,0,0,0,7.42.81A32.17,32.17,0,0,0,401.45,575.2Z"/><path class="cls-4" d="M642,519.92c-7.2-6.18-16.43-9.31-27.44-9.31-7.52,0-19.63,3.12-19.63,3.12v19.52c5.56-3.62,9.86-5.45,15.36-5.45,6.25,0,11.26,1.82,15.3,5.55a17.72,17.72,0,0,1,5.87,13.72c0,5.09-1.44,9-4.38,11.93s-6.89,4.37-12,4.37a16.79,16.79,0,0,1-12.51-4.87h-7.59v19.62l3.46.79A65.91,65.91,0,0,0,613,580.58c11.7,0,21.3-3.39,28.51-10.07a34.19,34.19,0,0,0,11.63-26A31,31,0,0,0,642,519.92Z"/><path class="cls-4" d="M74.19,520.1a39.65,39.65,0,0,0-20.69-9,54.39,54.39,0,0,0-7.78-.57c-6.92,0-15.85,1.1-21.48,3.26v19.74a30.47,30.47,0,0,1,18.4-5.81A23.51,23.51,0,0,1,53.5,530a16.89,16.89,0,0,1,4,2.7,17.7,17.7,0,0,1,5.17,9.54H53.5l-34.55.42v6.46c0,9.13,3.17,16.79,9.44,22.78a31.89,31.89,0,0,0,23.47,8.94c7.29-.17,17.64-3.69,22.57-8.69,7.34-7.43,11.2-16.06,11.2-26.65C85.63,535.2,81.78,526.65,74.19,520.1ZM50,564.85C40.52,565,38.36,559,38.36,559H60.84C58.87,565,50,564.85,50,564.85Z"/><path class="cls-4" d="M222.15,570.88c6.67,6.13,15,9.24,24.71,9.24s18.1-2.62,24.88-7.8c8.95-6.87,13.48-16.11,13.48-27.48A32.89,32.89,0,0,0,274.69,520c-6.91-6.51-15.63-9.81-25.94-9.81-10.53,0-19.52,3.41-26.75,10.14a34.38,34.38,0,0,0,.14,50.58Zm14.74-39.17c2.74-2.94,6.27-4.37,10.8-4.37a14,14,0,0,1,11.16,5.13c3.14,3.65,4.67,8.2,4.67,13.91,0,5.1-1.37,9.07-4.17,12.14a13.39,13.39,0,0,1-10.47,4.39,14.53,14.53,0,0,1-11.6-5c-3.09-3.53-4.59-8.16-4.59-14.18C232.68,538.69,234.06,534.75,236.89,531.72Z"/><path class="cls-4" d="M215.18,580l-9.29-10.27L205.83,551v-10.1c0-8-1.41-14-4.3-18.34-4.6-7-11.9-10.54-21.66-10.73l0,0h-.79l-4.58,0-8.6,10.94V511.86H145.66v10.27l0,47.53V580l20.16-.06V540.72c0-3.27.9-5.77,2.71-7.63a9.62,9.62,0,0,1,7.3-2.74c4.68,0,6.62,1.75,7.7,3.11.76.94,2,3.41,2.08,9.36V580Z"/><path class="cls-4" d="M350.16,594.78l-.36-72.68V511.71l-20.16.06V551c0,3.27-.9,5.77-2.71,7.63a9.62,9.62,0,0,1-7.3,2.74c-4.68,0-6.62-1.75-7.7-3.11-.76-.94-2-3.41-2.08-9.36V511.71H280.33L289.62,522l.06,18.82v10.1c0,8,1.41,14,4.3,18.34,4.6,7,11.9,10.54,21.66,10.73l0,0h.79l4.58,0,8.6-10.94.31,35.93h29.51Z"/><path class="cls-4" d="M136.6,546.43c-3.12-2.84-8.44-5.56-16.28-8.32-8.45-3-10.42-4.19-10.89-4.53-2.06-1.47-.66-3.47.95-4.59a12.4,12.4,0,0,1,7.16-1.81c6.33,0,13.41,2.37,21,7V514a54.1,54.1,0,0,0-18.78-3.37c-9.27,0-16.89,2-22.65,6.08a21,21,0,0,0-9.43,17.81c0,6.26,2.46,10.76,6.61,13.91A25,25,0,0,0,101,551.9c3.84,1.39,7.75,2.57,11.65,3.76l6.72,2.17-.07,7.24H106.52l-8.67-9v5.87s0,16.75,0,16.84A56.93,56.93,0,0,0,113,580.55c8.54,0,15.45-1.76,20.53-5.22A18.68,18.68,0,0,0,142,559.27,16.6,16.6,0,0,0,136.6,546.43Z"/><path class="cls-3" d="M283.52,793.74l-1.14,1a58,58,0,0,0,30.55,100.32V780.24a57.75,57.75,0,0,0-26.26,11Q285.05,792.42,283.52,793.74Zm4.73,15.14a7,7,0,0,1,14.09,0h0a7,7,0,1,1-14.09,0Zm0,28.78q0-.18,0-.36a7,7,0,0,1,4.29-6.13l.32-.13q.32-.12.66-.21a7.1,7.1,0,0,1,3.52,0q.34.09.66.21l.32.13a7,7,0,0,1,4.29,6.13q0,.18,0,.36h0a7,7,0,0,1-14.09,0Zm0,28.78h0a7,7,0,0,1,3.11-5.84l.43-.27a7.05,7.05,0,0,1,7,0l.43.27a7,7,0,0,1,3.11,5.84h0a7,7,0,1,1-14.09,0Z"/><path class="cls-4" d="M246.43,837.66a75.06,75.06,0,0,0,75,75h8.47l-50.42,59.87h50.43V912.64h0v-150h-8.48A75.06,75.06,0,0,0,246.43,837.66Zm66.51-57.41V895.07a58,58,0,0,1-30.55-100.32l1.14-1q1.53-1.32,3.15-2.53a57.74,57.74,0,0,1,26.26-11Z"/><path class="cls-6" d="M282.38,794.75l1.14-1"/><path class="cls-4" d="M350.61,762.68h-8.47V912.61l.06,0h8.41a75,75,0,1,0,0-150Zm8.47,132.39V780.24a58,58,0,0,1,0,114.83Z"/><path class="cls-2" d="M291.94,872.63a7,7,0,0,0,10.4-6.19h0a7,7,0,0,0-3.11-5.84l-.43-.27a7.05,7.05,0,0,0-7,0l-.43.27a7,7,0,0,0-3.11,5.84h0A7,7,0,0,0,291.94,872.63Z"/><path class="cls-5" d="M298.65,872.63a7,7,0,0,1-.77.36"/><path class="cls-2" d="M291.94,872.63a7,7,0,0,0,.77.36"/><path class="cls-2" d="M295.3,844.7a7,7,0,0,0,7-7q0-.18,0-.36a7,7,0,0,0-4.29-6.13l-.32-.13q-.32-.12-.66-.21a7.1,7.1,0,0,0-3.52,0q-.34.09-.66.21l-.32.13a7,7,0,0,0-4.29,6.13q0,.18,0,.36A7,7,0,0,0,295.3,844.7Z"/><path class="cls-2" d="M295.3,815.92a7,7,0,0,0,7-7h0a7,7,0,0,0-14.09,0h0a7,7,0,0,0,7,7Z"/><path class="cls-2" d="M359.09,780.24V895.07a58,58,0,0,0,0-114.83Z"/></svg>