<svg id="money-illo" xmlns="http://www.w3.org/2000/svg" xmlns:xlink="http://www.w3.org/1999/xlink" viewBox="0 0 922.25 794.05">
<defs>
    <style>.cls-1{fill:none;}.cls-2{fill:#fff;}.cls-3{fill:#2733ff;}.cls-4{fill:#ff2600;}.cls-5{clip-path:url(#clip-path);}.cls-6{clip-path:url(#clip-path-2);}</style>
    <clipPath id="clip-path">
        <path class="cls-1" d="M237.3,83.61l1.11.29,11.24,14.43v11.75c12.23,3.15,24.46,6.19,36.69,8.89q0-5.06,0-10.12c0-13.75-11.19-27.4-25-30.86-8-2-16.06-4.09-24.1-6.19-3.26-.85-5.91,1.11-5.91,4.36A8.2,8.2,0,0,0,237.3,83.61Z"/>
    </clipPath>
    <clipPath id="clip-path-2">
        <rect class="cls-1" x="-236.01" y="893.76" width="549" height="226"/>
    </clipPath>
    <symbol id="money" data-name="money" viewBox="0 0 466.55 317.78">
        <path class="cls-2" d="M460.77,25.86a201.21,201.21,0,0,1-20.91,8.94c-68.15,24.65-138,6.39-205.58-11.27C165.54,5.57,94.45-13,24,12.49a209.63,209.63,0,0,0-21.74,9.3L0,22.89V294.78l5.78-2.87A201.38,201.38,0,0,1,26.69,283c68.15-24.65,138-6.39,205.58,11.27,44.54,11.64,90.07,23.54,135.78,23.54,24.83,0,49.73-3.51,74.54-12.49a209.34,209.34,0,0,0,21.74-9.3l2.22-1.1V23Z"/>
        <path class="cls-3" d="M411.38,275V253.6c0-3.41-.75-4.69-1.19-5.15-.62-.67-1.74-1.45-4.42-1a6.68,6.68,0,0,0-4.19,2.23,6.87,6.87,0,0,0-1.55,4.6v22.55q-5.79.82-11.58,1.33v-6q-.1-20.86-.21-41.72-2.67-2.72-5.33-5.51,8.47-.52,16.95-1.68.09,10.31.18,20.61,2.47-3.48,4.94-7l2.63-.42h.11l.34-.06h0c5.6-.9,9.79.19,12.44,3.54,1.66,2.08,2.47,5.31,2.47,9.91q0,2.9,0,5.8,0,5.4,0,10.8,2.67,2.26,5.33,4.45Q419.85,273.32,411.38,275ZM314.71,94.81h0c46.25,52,46.25,127,0,167.49h0A81.75,81.75,0,0,1,276.91,280c54.77,12.81,109.54,20,164.31.15V59.9C384.81,80.3,328.4,72.1,272,58.58A179.5,179.5,0,0,1,314.71,94.81Zm85.14,3.42q2.75-8.85,5.51-17.78,2.75,8,5.51,16,8.91-1.72,17.82-4.28-7.21,7.32-14.42,14.07,2.75,7.89,5.51,15.71-7.21-3.51-14.42-7.56-7.21,6.43-14.42,12.36,2.75-8.74,5.51-17.55Q389.24,104.79,382,100,390.94,99.45,399.85,98.23Z"/>
        <path class="cls-3" d="M73.59,205.55q-2.25.24-4.5.52a8.55,8.55,0,0,0-7.42-1.81,11.26,11.26,0,0,0-7.14,3.88,11.39,11.39,0,0,0-2.6,7.61,8.51,8.51,0,0,0,3.48,7.43c2.4,1.75,5.37,2.29,9.07,1.74,3.26-.48,5.81-1.89,9.1-4.39V232.1A91,91,0,0,1,62,235.51c-6.53,1.05-12,.4-16.27-2.22s-6.62-6.91-6.62-12.81,2.32-11.92,6.9-17.25a27.28,27.28,0,0,1,16.9-9.35,32.43,32.43,0,0,1,8.67-.2l2,.24Zm73.62,18.63c-23.13-26.64-34.69-57-34.69-87.44,0-30.16,11.56-60.44,34.69-80.05h0A82.2,82.2,0,0,1,189.94,37.8C135.07,24.95,80.2,17.73,25.33,37.58V257.88c53.23-19.25,106.45-13,159.68-.91a178.92,178.92,0,0,1-37.79-32.79ZM45.87,50.64a27.29,27.29,0,0,1,16.9-9.36,32.49,32.49,0,0,1,8.67-.2l2,.24V53q-2.25.24-4.5.53a8.56,8.56,0,0,0-7.42-1.81,11.26,11.26,0,0,0-7.14,3.89,11.38,11.38,0,0,0-2.6,7.61,8.51,8.51,0,0,0,3.48,7.43c2.4,1.75,5.37,2.29,9.07,1.73,3.26-.48,5.81-1.9,9.1-4.39V79.51a90.93,90.93,0,0,1-11.64,3.41c-6.53,1.06-12,.4-16.27-2.21S39,73.8,39,67.9,41.29,56,45.87,50.64Z"/>
        <path class="cls-4" d="M441.22,280.2C386.45,300,331.68,292.86,276.91,280,247.6,285.54,214.33,275.94,185,257c-53.23-12.12-106.45-18.34-159.68.91V37.58c54.87-19.85,109.74-12.63,164.61.23,26.42-3.56,55.62,4.72,82,20.77C328.4,72.1,384.81,80.3,441.22,59.9Zm0-241.63C302.59,88.71,164-33.89,25.33,16.25A204.39,204.39,0,0,0,4,25.37v263a204.27,204.27,0,0,1,21.33-9.12C164,229.07,302.59,351.67,441.22,301.53a204.38,204.38,0,0,0,21.33-9.12v-263A204.26,204.26,0,0,1,441.22,38.57Z"/>
        <path class="cls-2" d="M314.71,262.3c46.25-40.51,46.25-115.5,0-167.49h0A179.51,179.51,0,0,0,272,58.58c-26.42-16.06-55.62-24.34-82-20.77a82.21,82.21,0,0,0-42.72,18.88h0c-23.13,19.61-34.69,49.89-34.69,80.05,0,30.46,11.56,60.8,34.69,87.44h0A178.94,178.94,0,0,0,185,257c29.32,19,62.59,28.58,91.91,23.08a81.77,81.77,0,0,0,37.79-17.75Z"/>
        <path class="cls-2" d="M56.27,83.89a20.63,20.63,0,0,1-10.94-2.76h0c-4.55-2.77-6.85-7.23-6.85-13.23s2.43-12.23,7-17.58a27.67,27.67,0,0,1,17.21-9.52,33,33,0,0,1,8.81-.21l2.05.24.44.05V53.4l-.45,0q-2.24.24-4.49.52l-.22,0-.17-.15a8.07,8.07,0,0,0-7-1.69,10.76,10.76,0,0,0-6.84,3.71,10.88,10.88,0,0,0-2.48,7.29c0,3.17,1,5.4,3.27,7s5.1,2.18,8.71,1.64c3.32-.49,5.86-2,8.88-4.3l.8-.61V80.5l-.59-.43-.18.06a76.58,76.58,0,0,1-11.29,3.28A35.52,35.52,0,0,1,56.27,83.89ZM67.89,41.38a32.37,32.37,0,0,0-5,.4A26.7,26.7,0,0,0,46.25,51c-4.5,5.24-6.78,10.94-6.78,16.93,0,5.71,2.09,9.76,6.38,12.38h0c4.05,2.48,9.41,3.2,15.93,2.14a75.79,75.79,0,0,0,11.12-3.24l.1,0V68.93a18.53,18.53,0,0,1-8.53,3.89c-3.88.58-7,0-9.44-1.82a9,9,0,0,1-3.68-7.83,11.84,11.84,0,0,1,2.71-7.93,11.72,11.72,0,0,1,7.44-4.06A9.06,9.06,0,0,1,69.15,53q1.92-.24,3.84-.45V41.76l-1.61-.19A31.27,31.27,0,0,0,67.89,41.38Z"/>
        <path class="cls-2" d="M56.38,236.48a20.65,20.65,0,0,1-11-2.77c-4.55-2.78-6.85-7.23-6.85-13.23s2.43-12.23,7-17.58a27.65,27.65,0,0,1,17.21-9.52,33.06,33.06,0,0,1,8.8-.2l2.05.24.44.05V206l-.45,0q-2.25.24-4.49.52l-.22,0-.17-.15a8.08,8.08,0,0,0-7-1.69,10.75,10.75,0,0,0-6.84,3.71,10.89,10.89,0,0,0-2.48,7.29,8.07,8.07,0,0,0,3.27,7c2.25,1.65,5.1,2.19,8.71,1.65,3.32-.49,5.86-2,8.88-4.29l.8-.61v13.6l-.59-.46-.16.05A76.91,76.91,0,0,1,62,236,35.52,35.52,0,0,1,56.38,236.48ZM68,194a32.26,32.26,0,0,0-5,.39h0a26.68,26.68,0,0,0-16.6,9.18c-4.5,5.24-6.78,10.93-6.78,16.93,0,5.71,2.09,9.76,6.38,12.38,4.05,2.48,9.41,3.2,15.93,2.15A76,76,0,0,0,73,231.77l.08,0V221.52a18.55,18.55,0,0,1-8.53,3.89c-3.88.58-7,0-9.44-1.83a9,9,0,0,1-3.68-7.83,11.85,11.85,0,0,1,2.71-7.93,11.71,11.71,0,0,1,7.44-4.05,9.06,9.06,0,0,1,7.65,1.78q1.92-.24,3.84-.45V194.36l-1.61-.19A31.74,31.74,0,0,0,68,194Z"/>
        <path class="cls-2" d="M387.93,278.71V272l-.2-41.31q-2.6-2.66-5.2-5.37l-.75-.78,1.08-.07c5.7-.35,11.39-.91,16.91-1.68l.56-.08.17,19.63q2-2.86,4-5.76l.12-.18.21,0,2.56-.41.08,0,.64-.1h0c5.77-.88,10,.38,12.71,3.75,1.73,2.17,2.58,5.51,2.58,10.22l0,16.37q2.58,2.18,5.15,4.29l.74.6-.92.26c-5.56,1.59-11.27,3-17,4.09l-.6.12v-22c0-3.37-.74-4.48-1.05-4.8-.58-.62-1.55-1.26-4-.85A6.21,6.21,0,0,0,402,250a6.4,6.4,0,0,0-1.43,4.28v23l-.43.06c-3.81.54-7.71,1-11.6,1.34ZM384,225.41q2.29,2.39,4.58,4.73l.14.14.21,47.34c3.55-.32,7.1-.73,10.58-1.22V254.29a7.35,7.35,0,0,1,1.67-4.93,7.17,7.17,0,0,1,4.49-2.4c2.94-.5,4.18.42,4.87,1.15s1.3,2.07,1.33,5.48v20.77c5.18-1,10.35-2.27,15.39-3.69q-2.3-1.89-4.6-3.85l-.18-.15,0-16.83c0-4.47-.77-7.62-2.36-9.6-2.48-3.15-6.4-4.25-12-3.36l-.2,0h0l-.14,0s-.06,0-.15,0l-2.39.39q-2.41,3.45-4.82,6.85l-.89,1.26-.19-21.59C394.33,224.55,389.17,225.07,384,225.41Z"/>
        <path class="cls-2" d="M390,128.15l.51-1.61q2.69-8.55,5.39-17.17c-4.6-2.79-9.35-5.81-14.1-9l-1.24-.83,1.49-.09c5.9-.34,11.78-.91,17.46-1.69q2.7-8.7,5.41-17.48l.45-1.47.5,1.45q2.68,7.81,5.36,15.55c5.85-1.14,11.68-2.55,17.35-4.19l1.84-.53L429,92.48c-4.64,4.71-9.42,9.37-14.19,13.86q2.7,7.74,5.4,15.4l.4,1.15-1.09-.53c-4.63-2.25-9.38-4.74-14.13-7.4-4.62,4.12-9.39,8.2-14.16,12.13Zm-6.41-27.78c4.44,2.95,8.86,5.75,13.16,8.35l.34.2-.12.37q-2.5,8-5,15.94c4.42-3.67,8.82-7.45,13.1-11.27l.27-.24.31.17c4.46,2.5,8.92,4.86,13.29,7q-2.55-7.24-5.1-14.56l-.11-.31.24-.22c4.39-4.11,8.78-8.38,13.07-12.7-5.26,1.46-10.64,2.73-16,3.77l-.43.08-.14-.41q-2.5-7.22-5-14.51-2.53,8.19-5.05,16.32l-.09.3-.31,0C394.58,99.46,389.08,100,383.55,100.37Z"/>
        <path class="cls-3" d="M298.27,126.76V131a7.11,7.11,0,0,1-5.3,7.21V132a3.44,3.44,0,0,0-2.63-3.19,2.06,2.06,0,0,0-2.63,2.06V138l-5.56-1.24v-7.12a3.51,3.51,0,0,0-2.63-3.24,2,2,0,0,0-2.63,2q0,3.56,0,7.12l-5.56-1.32v-7.12a3.57,3.57,0,0,0-2.63-3.27,2,2,0,0,0-2.63,2v7.12l-5.56-1.38v-7.12a3.61,3.61,0,0,0-2.63-3.3,2,2,0,0,0-2.63,2q0,3.56,0,7.12l-5.55-1.42V115.35c12.23,3.15,24.46,6.19,36.69,8.89l2.63.58Q293.62,125.83,298.27,126.76ZM235.49,68.41c8.78,2.36,35.13,10.19,35.13,10.1,0,.09,21.37,12.56,18.74,43.82-13.66-3-27.32-6.36-41-9.88q0-6.59,0-13.17L237.25,86.72l-.37-.13-6.07-2.14s-.18-.81-.38-2.06C229.66,77.67,228.55,66.6,235.49,68.41Zm57.4,89.31V143.85c6.13-.37,10.65-5.13,10.65-11.78q0-4.78,0-9.56-6-1.13-11.93-2.4V110c0-16.66-13.56-33.07-30.22-37.27-8-2-16.06-4.09-24.1-6.19-6.16-1.61-11.17,2.09-11.17,8.26a13.89,13.89,0,0,0,2.29,7.36c-5.27-.18-9.22,3.52-9.22,9.15q0,4.62,0,9.25-5.42,9.44-10.84,18.91l8.87,2.26q0,.82,0,1.64c0,12.33,10,25,22.37,28.2l1.08.28q10.19-7.41,20.37-14.9,4.2,1.05,8.41,2.07,6,1.45,11.95,2.81v22.38q5.5,1.25,11,2.42,5.79,1.22,11.58,2.32V152.67Q298.43,155.25,292.89,157.72ZM238.54,146a24.39,24.39,0,0,1-14.32-13.31,15.66,15.66,0,0,0,12-2.56l-3.73-4.7a11.79,11.79,0,0,1-9.86,1.67,18,18,0,0,1-.16-2.36v-6.91l-5.61-1.45,7.58-13.2q0-5.25,0-10.49c0-3.63,3-5.81,6.56-4.87l5.77,1.56,7.59,9.76q0,16.79,0,33.57l9.16,2.36Q246,140.54,238.54,146Z"/>
        <path class="cls-3" d="M235.2,105l3.73-2.75c-3.6-4.54-9.47-6.08-13.07-3.41l3.73,4.7C231.13,102.43,233.65,103.09,235.2,105Z"/>
        <path class="cls-4" d="M232.49,110.15a2.23,2.23,0,0,0,3-2.21l-6-1.56A4.15,4.15,0,0,0,232.49,110.15Z"/>
        <g class="cls-5">
            <rect class="cls-1" x="278.05" y="82.81" width="6" height="6"/>
            <circle class="cls-1" cx="281.05" cy="85.81" r="3"/>
            <circle class="cls-3" cx="281.05" cy="85.81" r="1"/>
            <rect class="cls-1" x="278.05" y="88.81" width="6" height="6"/>
            <circle class="cls-1" cx="281.05" cy="91.81" r="3"/>
            <circle class="cls-3" cx="281.05" cy="91.81" r="1"/>
            <rect class="cls-1" x="278.05" y="94.81" width="6" height="6"/>
            <circle class="cls-1" cx="281.05" cy="97.81" r="3"/>
            <circle class="cls-3" cx="281.05" cy="97.81" r="1"/>
            <rect class="cls-1" x="278.05" y="100.81" width="6" height="6"/>
            <circle class="cls-1" cx="281.05" cy="103.81" r="3"/>
            <circle class="cls-3" cx="281.05" cy="103.81" r="1"/>
            <rect class="cls-1" x="278.05" y="106.81" width="6" height="6"/>
            <circle class="cls-1" cx="281.05" cy="109.81" r="3"/>
            <circle class="cls-3" cx="281.05" cy="109.81" r="1"/>
            <rect class="cls-1" x="278.05" y="112.81" width="6" height="6"/>
            <circle class="cls-1" cx="281.05" cy="115.81" r="3"/>
            <circle class="cls-3" cx="281.05" cy="115.81" r="1"/>
            <rect class="cls-1" x="278.05" y="118.81" width="6" height="6"/>
            <circle class="cls-1" cx="281.05" cy="121.81" r="3"/>
            <circle class="cls-3" cx="281.05" cy="121.81" r="1"/>
            <rect class="cls-1" x="272.05" y="70.81" width="6" height="6"/>
            <circle class="cls-1" cx="275.05" cy="73.81" r="3"/>
            <circle class="cls-3" cx="275.05" cy="73.81" r="1"/>
            <rect class="cls-1" x="272.05" y="76.81" width="6" height="6"/>
            <circle class="cls-1" cx="275.05" cy="79.81" r="3"/>
            <circle class="cls-3" cx="275.05" cy="79.81" r="1"/>
            <rect class="cls-1" x="272.05" y="82.81" width="6" height="6"/>
            <circle class="cls-1" cx="275.05" cy="85.81" r="3"/>
            <circle class="cls-3" cx="275.05" cy="85.81" r="1"/>
            <rect class="cls-1" x="272.05" y="88.81" width="6" height="6"/>
            <circle class="cls-1" cx="275.05" cy="91.81" r="3"/>
            <circle class="cls-3" cx="275.05" cy="91.81" r="1"/>
            <rect class="cls-1" x="272.05" y="94.81" width="6" height="6"/>
            <circle class="cls-1" cx="275.05" cy="97.81" r="3"/>
            <circle class="cls-3" cx="275.05" cy="97.81" r="1"/>
            <rect class="cls-1" x="272.05" y="100.81" width="6" height="6"/>
            <circle class="cls-1" cx="275.05" cy="103.81" r="3"/>
            <circle class="cls-3" cx="275.05" cy="103.81" r="1"/>
            <rect class="cls-1" x="272.05" y="106.81" width="6" height="6"/>
            <circle class="cls-1" cx="275.05" cy="109.81" r="3"/>
            <circle class="cls-3" cx="275.05" cy="109.81" r="1"/>
            <rect class="cls-1" x="272.05" y="112.81" width="6" height="6"/>
            <circle class="cls-1" cx="275.05" cy="115.81" r="3"/>
            <circle class="cls-3" cx="275.05" cy="115.81" r="1"/>
            <rect class="cls-1" x="266.05" y="76.81" width="6" height="6"/>
            <circle class="cls-1" cx="269.05" cy="79.81" r="3"/>
            <circle class="cls-3" cx="269.05" cy="79.81" r="1"/>
            <rect class="cls-1" x="266.05" y="82.81" width="6" height="6"/>
            <circle class="cls-1" cx="269.05" cy="85.81" r="3"/>
            <circle class="cls-3" cx="269.05" cy="85.81" r="1"/>
            <rect class="cls-1" x="266.05" y="88.81" width="6" height="6"/>
            <circle class="cls-1" cx="269.05" cy="91.81" r="3"/>
            <circle class="cls-3" cx="269.05" cy="91.81" r="1"/>
            <rect class="cls-1" x="266.05" y="94.81" width="6" height="6"/>
            <circle class="cls-1" cx="269.05" cy="97.81" r="3"/>
            <circle class="cls-3" cx="269.05" cy="97.81" r="1"/>
            <rect class="cls-1" x="266.05" y="100.81" width="6" height="6"/>
            <circle class="cls-1" cx="269.05" cy="103.81" r="3"/>
            <circle class="cls-3" cx="269.05" cy="103.81" r="1"/>
            <rect class="cls-1" x="266.05" y="106.81" width="6" height="6"/>
            <circle class="cls-1" cx="269.05" cy="109.81" r="3"/>
            <circle class="cls-3" cx="269.05" cy="109.81" r="1"/>
            <rect class="cls-1" x="266.05" y="112.81" width="6" height="6"/>
            <circle class="cls-1" cx="269.05" cy="115.81" r="3"/>
            <circle class="cls-3" cx="269.05" cy="115.81" r="1"/>
            <rect class="cls-1" x="260.05" y="70.81" width="6" height="6"/>
            <circle class="cls-1" cx="263.05" cy="73.81" r="3"/>
            <circle class="cls-3" cx="263.05" cy="73.81" r="1"/>
            <rect class="cls-1" x="260.05" y="76.81" width="6" height="6"/>
            <circle class="cls-1" cx="263.05" cy="79.81" r="3"/>
            <circle class="cls-3" cx="263.05" cy="79.81" r="1"/>
            <rect class="cls-1" x="260.05" y="82.81" width="6" height="6"/>
            <circle class="cls-1" cx="263.05" cy="85.81" r="3"/>
            <circle class="cls-3" cx="263.05" cy="85.81" r="1"/>
            <rect class="cls-1" x="260.05" y="88.81" width="6" height="6"/>
            <circle class="cls-1" cx="263.05" cy="91.81" r="3"/>
            <circle class="cls-3" cx="263.05" cy="91.81" r="1"/>
            <rect class="cls-1" x="260.05" y="94.81" width="6" height="6"/>
            <circle class="cls-1" cx="263.05" cy="97.81" r="3"/>
            <circle class="cls-3" cx="263.05" cy="97.81" r="1"/>
            <rect class="cls-1" x="260.05" y="100.81" width="6" height="6"/>
            <circle class="cls-1" cx="263.05" cy="103.81" r="3"/>
            <circle class="cls-3" cx="263.05" cy="103.81" r="1"/>
            <rect class="cls-1" x="260.05" y="106.81" width="6" height="6"/>
            <circle class="cls-1" cx="263.05" cy="109.81" r="3"/>
            <circle class="cls-3" cx="263.05" cy="109.81" r="1"/>
            <rect class="cls-1" x="260.05" y="112.81" width="6" height="6"/>
            <circle class="cls-1" cx="263.05" cy="115.81" r="3"/>
            <circle class="cls-3" cx="263.05" cy="115.81" r="1"/>
            <rect class="cls-1" x="260.05" y="118.81" width="6" height="6"/>
            <circle class="cls-1" cx="263.05" cy="121.81" r="3"/>
            <circle class="cls-3" cx="263.05" cy="121.81" r="1"/>
            <rect class="cls-1" x="254.05" y="70.81" width="6" height="6"/>
            <circle class="cls-1" cx="257.05" cy="73.81" r="3"/>
            <circle class="cls-3" cx="257.05" cy="73.81" r="1"/>
            <rect class="cls-1" x="254.05" y="76.81" width="6" height="6"/>
            <circle class="cls-1" cx="257.05" cy="79.81" r="3"/>
            <circle class="cls-3" cx="257.05" cy="79.81" r="1"/>
            <rect class="cls-1" x="254.05" y="82.81" width="6" height="6"/>
            <circle class="cls-1" cx="257.05" cy="85.81" r="3"/>
            <circle class="cls-3" cx="257.05" cy="85.81" r="1"/>
            <rect class="cls-1" x="254.05" y="88.81" width="6" height="6"/>
            <circle class="cls-1" cx="257.05" cy="91.81" r="3"/>
            <circle class="cls-3" cx="257.05" cy="91.81" r="1"/>
            <rect class="cls-1" x="254.05" y="94.81" width="6" height="6"/>
            <circle class="cls-1" cx="257.05" cy="97.81" r="3"/>
            <circle class="cls-3" cx="257.05" cy="97.81" r="1"/>
            <rect class="cls-1" x="254.05" y="100.81" width="6" height="6"/>
            <circle class="cls-1" cx="257.05" cy="103.81" r="3"/>
            <circle class="cls-3" cx="257.05" cy="103.81" r="1"/>
            <rect class="cls-1" x="254.05" y="106.81" width="6" height="6"/>
            <circle class="cls-1" cx="257.05" cy="109.81" r="3"/>
            <circle class="cls-3" cx="257.05" cy="109.81" r="1"/>
            <rect class="cls-1" x="254.05" y="112.81" width="6" height="6"/>
            <circle class="cls-1" cx="257.05" cy="115.81" r="3"/>
            <circle class="cls-3" cx="257.05" cy="115.81" r="1"/>
            <rect class="cls-1" x="254.05" y="118.81" width="6" height="6"/>
            <circle class="cls-1" cx="257.05" cy="121.81" r="3"/>
            <circle class="cls-3" cx="257.05" cy="121.81" r="1"/>
            <rect class="cls-1" x="248.05" y="70.81" width="6" height="6"/>
            <circle class="cls-1" cx="251.05" cy="73.81" r="3"/>
            <circle class="cls-3" cx="251.05" cy="73.81" r="1"/>
            <rect class="cls-1" x="248.05" y="76.81" width="6" height="6"/>
            <circle class="cls-1" cx="251.05" cy="79.81" r="3"/>
            <circle class="cls-3" cx="251.05" cy="79.81" r="1"/>
            <rect class="cls-1" x="248.05" y="82.81" width="6" height="6"/>
            <circle class="cls-1" cx="251.05" cy="85.81" r="3"/>
            <circle class="cls-3" cx="251.05" cy="85.81" r="1"/>
            <rect class="cls-1" x="248.05" y="88.81" width="6" height="6"/>
            <circle class="cls-1" cx="251.05" cy="91.81" r="3"/>
            <circle class="cls-3" cx="251.05" cy="91.81" r="1"/>
            <rect class="cls-1" x="248.05" y="94.81" width="6" height="6"/>
            <circle class="cls-1" cx="251.05" cy="97.81" r="3"/>
            <circle class="cls-3" cx="251.05" cy="97.81" r="1"/>
            <rect class="cls-1" x="248.05" y="100.81" width="6" height="6"/>
            <circle class="cls-1" cx="251.05" cy="103.81" r="3"/>
            <circle class="cls-3" cx="251.05" cy="103.81" r="1"/>
            <rect class="cls-1" x="248.05" y="106.81" width="6" height="6"/>
            <circle class="cls-1" cx="251.05" cy="109.81" r="3"/>
            <circle class="cls-3" cx="251.05" cy="109.81" r="1"/>
            <rect class="cls-1" x="242.05" y="70.81" width="6" height="6"/>
            <circle class="cls-1" cx="245.05" cy="73.81" r="3"/>
            <circle class="cls-3" cx="245.05" cy="73.81" r="1"/>
            <rect class="cls-1" x="242.05" y="76.81" width="6" height="6"/>
            <circle class="cls-1" cx="245.05" cy="79.81" r="3"/>
            <circle class="cls-3" cx="245.05" cy="79.81" r="1"/>
            <rect class="cls-1" x="242.05" y="82.81" width="6" height="6"/>
            <circle class="cls-1" cx="245.05" cy="85.81" r="3"/>
            <circle class="cls-3" cx="245.05" cy="85.81" r="1"/>
            <rect class="cls-1" x="242.05" y="88.81" width="6" height="6"/>
            <circle class="cls-1" cx="245.05" cy="91.81" r="3"/>
            <circle class="cls-3" cx="245.05" cy="91.81" r="1"/>
            <rect class="cls-1" x="236.05" y="70.81" width="6" height="6"/>
            <circle class="cls-1" cx="239.05" cy="73.81" r="3"/>
            <circle class="cls-3" cx="239.05" cy="73.81" r="1"/>
            <rect class="cls-1" x="236.05" y="76.81" width="6" height="6"/>
            <circle class="cls-1" cx="239.05" cy="79.81" r="3"/>
            <circle class="cls-3" cx="239.05" cy="79.81" r="1"/>
            <rect class="cls-1" x="236.05" y="82.81" width="6" height="6"/>
            <circle class="cls-1" cx="239.05" cy="85.81" r="3"/>
            <circle class="cls-3" cx="239.05" cy="85.81" r="1"/>
            <rect class="cls-1" x="230.05" y="70.81" width="6" height="6"/>
            <circle class="cls-1" cx="233.05" cy="73.81" r="3"/>
            <circle class="cls-3" cx="233.05" cy="73.81" r="1"/>
            <rect class="cls-1" x="230.05" y="76.81" width="6" height="6"/>
            <circle class="cls-1" cx="233.05" cy="79.81" r="3"/>
            <circle class="cls-3" cx="233.05" cy="79.81" r="1"/>
            <rect class="cls-1" x="230.05" y="82.81" width="6" height="6"/>
            <circle class="cls-1" cx="233.05" cy="85.81" r="3"/>
            <circle class="cls-3" cx="233.05" cy="85.81" r="1"/>
            <rect class="cls-1" x="230.05" y="88.81" width="6" height="6"/>
            <circle class="cls-1" cx="233.05" cy="91.81" r="3"/>
            <circle class="cls-3" cx="233.05" cy="91.81" r="1"/>
            <rect class="cls-1" x="230.05" y="94.81" width="6" height="6"/>
            <circle class="cls-1" cx="233.05" cy="97.81" r="3"/>
            <circle class="cls-3" cx="233.05" cy="97.81" r="1"/>
            <rect class="cls-1" x="230.05" y="100.81" width="6" height="6"/>
            <circle class="cls-1" cx="233.05" cy="103.81" r="3"/>
            <circle class="cls-3" cx="233.05" cy="103.81" r="1"/>
            <rect class="cls-1" x="230.05" y="106.81" width="6" height="6"/>
            <circle class="cls-1" cx="233.05" cy="109.81" r="3"/>
            <circle class="cls-3" cx="233.05" cy="109.81" r="1"/>
            <rect class="cls-1" x="230.05" y="112.81" width="6" height="6"/>
            <circle class="cls-1" cx="233.05" cy="115.81" r="3"/>
            <circle class="cls-3" cx="233.05" cy="115.81" r="1"/>
            <rect class="cls-1" x="230.05" y="118.81" width="6" height="6"/>
            <circle class="cls-1" cx="233.05" cy="121.81" r="3"/>
            <circle class="cls-3" cx="233.05" cy="121.81" r="1"/>
        </g>
        <path class="cls-3" d="M237.3,71.8c8,2.1,16.06,4.18,24.1,6.19,13.76,3.46,25,17.11,25,30.86q0,5.06,0,10.12c-12.23-2.7-24.46-5.74-36.69-8.89V98.33L238.41,83.9l-1.11-.29a8.2,8.2,0,0,1-5.91-7.45C231.39,72.9,234,70.95,237.3,71.8Zm-.42,14.79.37.13,11.12,12.55q0,6.59,0,13.17c13.66,3.53,27.32,6.93,41,9.88C292,91.07,270.62,78.6,270.62,78.51c0,.09-26.35-7.74-35.13-10.1-6.94-1.81-5.84,9.26-5.07,14,.2,1.25.38,2.06.38,2.06Z"/>
        <path class="cls-4" d="M235,115a3,3,0,0,0-4,2.93,5.51,5.51,0,0,0,4,5,3,3,0,0,0,4-2.93A5.5,5.5,0,0,0,235,115Z"/>
        <path class="cls-4" d="M276.42,168.34V146q-6-1.4-11.95-2.88-12.16,9.59-24.33,19,7,1.83,14,3.62c12,3.08,21.76,15.11,21.76,27.12-18.93-4.45-37.87-9.57-56.8-14.46l-6.62,5.15q0,16.08,0,32.16c26.75,6.82,53.49,14.29,80.24,19.92V172Q284.58,170.26,276.42,168.34Z"/>
        <path class="cls-3" d="M254.17,170.64q-7-1.79-14-3.62l-5.06-1.32-11.81,8.73c15.64,4.07,31.28,8.24,46.92,12A23.51,23.51,0,0,0,254.17,170.64Z"/>
        <path class="cls-3" d="M235.24,182.51V203c0,3-2.44,4.81-5.45,4q-10.26-2.68-20.51-5.29,0,13.19,0,26.38c10.38,2.63,20.76,5.37,31.15,8.07,11.7,3.06,21.19-4.05,21.19-15.76V189.3C252.83,187.1,244,184.81,235.24,182.51Z"/>
        <path class="cls-4" d="M200.83,196.7q-6.22-7.75-12.43-15.41l-5.62,16.11Q191.8,196.95,200.83,196.7Z"/>
        <path class="cls-2" d="M153.57,168.07s-2.18,5.3.87,13.67c0,0,4.69,42.13,4.91,42.29v0l.08,0c16.16,7.82,25,5.21,25,5.17h.08v0c.22-.08,4.91-40.29,4.91-40.29a19.79,19.79,0,0,0,.87-13.32A95.15,95.15,0,0,1,153.57,168.07Z"/>
        <path class="cls-3" d="M187.32,179.41a17,17,0,0,1-1.37,7.36l-.18.41-.05.47c-1.52,13.05-3.78,32.1-4.58,38.13a27.42,27.42,0,0,1-8-.63,52.72,52.72,0,0,1-10.38-3.45c-.83-6.64-3-26.25-4.55-39.74l-.05-.49-.18-.48a20.74,20.74,0,0,1-1.37-7.85,106.1,106.1,0,0,0,15.16,4.32,95.52,95.52,0,0,0,15.58,2m3-3.79a88.69,88.69,0,0,1-18.59-1.92,90.22,90.22,0,0,1-18.16-5.64s-2.18,5.3.87,13.67c0,0,4.69,42.12,4.91,42.29v0l.08,0a60.31,60.31,0,0,0,13.67,4.82c7.42,1.56,11.36.35,11.36.34h.08v0c.22-.08,4.91-40.3,4.91-40.29a19.79,19.79,0,0,0,.87-13.32Z"/>
        <path class="cls-4" d="M173.19,159.66a104,104,0,0,1-20.62-6.81l1,12.71a95.13,95.13,0,0,0,36.75,7.55l1-12.25C189.46,161.15,183.05,161.73,173.19,159.66Z"/>
        <path class="cls-3" d="M156.73,158.43a105,105,0,0,0,16.46,5A70.14,70.14,0,0,0,187.14,165l-.34,4.22a85.77,85.77,0,0,1-15.06-1.79,94,94,0,0,1-14.64-4.28l-.37-4.74m-4.15-5.59,1,12.71a90.3,90.3,0,0,0,18.16,5.64,88.78,88.78,0,0,0,18.59,1.92l1-12.25c-1.86.28-8.26.86-18.12-1.21a104,104,0,0,1-20.62-6.81Z"/>
        <path class="cls-3" d="M189.14,158.7c-16.08-6.61-29-7.27-34.15-7.17C172.27,158.87,184.7,159.07,189.14,158.7Z"/>
        <path class="cls-4" d="M203.54,190.86c-2.17,1.63-4.34,3.28-6.51,4.92-10.92-2.65-21.84-5.12-32.77-7.22a3.33,3.33,0,0,0-4.14,3.36,5.24,5.24,0,0,0,4,4.87,3.31,3.31,0,0,0-4,3.37,5.24,5.24,0,0,0,4,4.87,3.31,3.31,0,0,0-4,3.37,5.23,5.23,0,0,0,3.12,4.58,3.27,3.27,0,0,0-3.12,3.41,5.24,5.24,0,0,0,4.14,4.92c10.79,2.08,21.57,4.52,32.36,7.13,2.3,2.86,4.61,5.71,6.91,8.59Z"/>
    </symbol>
</defs>
<title>money</title>
<g id="moneystacks" data-name="Layer 2">
    <!-- <g class="push-mobile-12">
        <g class="moneyPiece" data-modifier="300">
            <use id="money13" width="466.55" height="317.78" transform="translate(501.47 45.3) scale(0.81)" xlink:href="#money"/>
        </g>
    </g>
    <g class="push-mobile-11">
        <g class="moneyPiece" data-modifier="250">
            <use id="money12" width="466.55" height="317.78" transform="translate(464.21 79.39) scale(0.82)" xlink:href="#money"/>
        </g>
    </g>
    <g class="push-mobile-10">
        <g class="moneyPiece" data-modifier="200">
            <use id="money11" width="466.55" height="317.78" transform="translate(426.96 113.47) scale(0.84)" xlink:href="#money"/>
        </g>
    </g>
    <g class="push-mobile-9">
        <g class="moneyPiece" data-modifier="150">
            <use id="money10" width="466.55" height="317.78" transform="translate(389.7 147.56) scale(0.86)" xlink:href="#money"/>
        </g>
    </g> -->

    <g class="push-mobile-8">
        <g class="moneyPiece" data-modifier="100">
            <use id="money9" width="466.55" height="317.78" transform="translate(352.45 181.64) scale(0.87)" xlink:href="#money"/>
        </g>
    </g>

    <g class="push-mobile-7">
        <g class="moneyPiece" data-modifier="50">
            <use id="money8" width="466.55" height="317.78" transform="translate(315.19 215.72) scale(0.89)" xlink:href="#money"/>
        </g>
    </g>

    <g class="push-mobile-6">
        <g class="moneyPiece" data-modifier="0">
            <use id="money7" width="466.55" height="317.78" transform="translate(277.94 249.81) scale(0.9)" xlink:href="#money"/>
        </g>
    </g>

    <g class="push-mobile-5">
        <g class="moneyPiece" data-modifier="-50">
            <use id="money6" width="466.55" height="317.78" transform="translate(240.68 283.89) scale(0.92)" xlink:href="#money"/>
        </g>
    </g>

    <g class="push-mobile-4">
        <g class="moneyPiece" data-modifier="-100">
            <use id="money5" width="466.55" height="317.78" transform="translate(203.43 317.98) scale(0.94)" xlink:href="#money"/>
        </g>
    </g>

    <g class="push-mobile-3">
        <g class="moneyPiece" data-modifier="-150">
            <use id="money4" width="466.55" height="317.78" transform="translate(166.17 352.06) scale(0.95)" xlink:href="#money"/>
        </g>
    </g>

    <g class="push-mobile-2">
        <g class="moneyPiece" data-modifier="-200">
            <use id="money3" width="466.55" height="317.78" transform="translate(128.92 386.14) scale(0.97)" xlink:href="#money"/>
        </g>
    </g>

    <g class="push-mobile-1">
        <g class="moneyPiece" data-modifier="-250">
            <use id="money2" width="466.55" height="317.78" transform="translate(91.66 420.23) scale(0.98)" xlink:href="#money"/>
        </g>
    </g>

    <g class="">
        <g class="moneyPiece" data-modifier="-300">
            <use id="money1" width="466.55" height="317.78" transform="translate(54.41 454.31)" xlink:href="#money"/>
        </g>
    </g>
</g>

</svg>
