<?xml version="1.0" encoding="utf-8"?>
<!-- Generator: Adobe Illustrator 23.1.1, SVG Export Plug-In . SVG Version: 6.00 Build 0)  -->
<svg version="1.1" id="art" xmlns="http://www.w3.org/2000/svg" xmlns:xlink="http://www.w3.org/1999/xlink" x="0px" y="0px"
	 width="120px" height="24px" viewBox="0 0 120 24" style="enable-background:new 0 0 120 24;" xml:space="preserve">
<g>
	<g>
		<g>
			<path class="st0" d="M35.7,0c-3,0-4.9,1.8-4.9,4.9v13.7c0,3.1,1.9,4.9,4.9,4.9s4.9-1.8,4.9-4.9V4.9C40.6,1.8,38.7,0,35.7,0z
				 M35.7,20.5c-1.2,0-2-0.4-2-1.1c0-0.2,0-6.6,0-7.5c0-1,0.5-2.2,0.7-2.8c0.2-0.6,0.4-1.3,0.5-1.8c0.1-0.3,0.1-3.7,0.1-3.8
				c0-0.2,0.1-0.5,0.7-0.5s0.7,0.2,0.7,0.5c0,0.1,0,3.5,0.1,3.8c0.1,0.5,0.4,1.3,0.5,1.8c0.2,0.6,0.7,1.8,0.7,2.8c0,0.9,0,7.3,0,7.5
				C37.7,20.1,36.9,20.5,35.7,20.5z"/>
			<path class="st0" d="M14.9,0.3c-0.2,0-0.9,0-1.2,0c-0.5,0-0.9,0.4-0.9,0.9l0,0v21.1l0,0c0,0.5,0.4,0.9,0.9,0.9c0.2,0,0.9,0,1.2,0
				c0.5,0,0.9-0.4,0.9-0.9l0,0V1.2l0,0C15.8,0.7,15.4,0.3,14.9,0.3z"/>
			<path class="st0" d="M23.3,0c-2.9,0-4.8,1.8-4.8,4.9v17.4l0,0l0,0c0,0.5,0.4,0.9,0.9,0.9c0.2,0,0.9,0,1.2,0
				c0.5,0,0.9-0.4,0.9-0.9l0,0l0,0V5.1c0-1.5,0.7-2.4,1.8-2.4c1.1,0,1.8,0.8,1.8,2.4v17.2l0,0l0,0c0,0.5,0.4,0.9,0.9,0.9
				c0.2,0,0.9,0,1.2,0c0.5,0,0.9-0.4,0.9-0.9l0,0l0,0V4.9C28.1,1.8,26.2,0,23.3,0z"/>
			<path class="st0" d="M9.7,0.3L9.7,0.3L9.7,0.3c-0.2,0-0.9,0-1.1,0c-0.5,0-0.8,0.3-0.9,0.8l0,0L5.8,14.6c-0.2,1.6-0.7,1.7-0.9,0
				L2.9,1.1l0,0C2.9,0.6,2.5,0.3,2,0.3l0,0h0H0.9l0,0C0.4,0.3,0,0.7,0,1.2c0,0.1,0,0.1,0,0.2l0,0l0,0v0l3.4,21.1l0,0
				c0.1,0.4,0.5,0.8,0.9,0.8l0,0h0h1.9h0c0.5,0,0.8-0.3,0.9-0.8l0,0l3.5-21.1h0c0,0,0-0.1,0-0.1C10.7,0.7,10.2,0.3,9.7,0.3z"/>
		</g>
		<g>
			<path class="st0" d="M64,0.3c-0.2,0-0.9,0-1.2,0c-0.5,0-0.9,0.4-0.9,0.9c0,0,0,0,0,0l0,0v8.7H58V1.2c0,0,0,0,0,0
				c0-0.5-0.4-0.9-0.9-0.9c-0.2,0-0.9,0-1.2,0c-0.5,0-0.9,0.4-0.9,0.9l0,0l0,0v21.1h0c0,0.5,0.4,0.9,0.9,0.9c0.2,0,0.9,0,1.2,0
				c0.5,0,0.9-0.4,0.9-0.9l0,0v0v0v0v-9.6h3.9v9.6l0,0c0,0.5,0.4,0.9,0.9,0.9c0.2,0,0.9,0,1.2,0c0.5,0,0.9-0.4,0.9-0.9l0,0V1.2l0,0
				c0,0,0,0,0,0C65,0.7,64.6,0.3,64,0.3z"/>
			<path class="st0" d="M78.2,0c-3,0-4.9,1.8-4.9,4.9v17.4l0,0v0c0,0.5,0.4,0.9,0.9,0.9c0.2,0,0.9,0,1.2,0c0.5,0,0.9-0.4,0.9-0.9v0
				l0,0v-8h1.8c3.5,0,4.9-2,4.9-5V4.9C83.1,1.8,81.3,0,78.2,0z M80.1,9.2c0,1.4-0.6,2.4-1.9,2.4h-1.8V5.1c0-1.6,0.7-2.4,1.8-2.4
				c1.1,0,1.8,0.7,1.8,2.4C80.1,5.1,80.1,9.2,80.1,9.2z"/>
			<path class="st0" d="M90.2,0c-3,0-4.9,1.8-4.9,4.9v17.4l0,0v0c0,0.5,0.4,0.9,0.9,0.9c0.2,0,0.9,0,1.2,0c0.5,0,0.9-0.4,0.9-0.9v0
				l0,0v-8h1.8c3.5,0,4.9-2,4.9-5V4.9C95.1,1.8,93.2,0,90.2,0z M92,9.2c0,1.4-0.6,2.4-1.9,2.4h-1.8V5.1c0-1.6,0.7-2.4,1.8-2.4
				c1.1,0,1.8,0.7,1.8,2.4L92,9.2L92,9.2z"/>
			<path class="st0" d="M104,0.3L104,0.3L104,0.3h-2c-3.5,0-4.8,2-4.8,5v13c0,3,1.3,5,4.8,5h2l0,0l0,0c0.5,0,0.9-0.4,0.9-0.9
				c0-0.2,0-0.7,0-1c0-0.5-0.4-0.9-0.9-0.9c0,0,0,0,0,0h-2c-1.3,0-1.9-0.8-1.9-2.3v-5.4h2.6v0c0.5,0,0.9-0.4,0.9-0.9
				c0-0.2,0-0.7,0-1c0-0.5-0.4-0.9-0.9-0.9l0,0h-2.6V5.4c0-1.4,0.6-2.3,1.9-2.3h2l0,0l0,0c0.5,0,0.9-0.4,0.9-0.9c0-0.2,0-0.7,0-1
				C105,0.7,104.6,0.3,104,0.3z"/>
			<path class="st0" d="M47.4,9C46.3,7.8,46,6.8,46,5.4c0-1.6,0.6-2.6,1.9-2.6c1.1,0,1.9,0.7,1.9,2.4v1.5v0v0v0l0,0
				c0,0.5,0.4,0.9,0.9,0.9c0.2,0,0.9,0,1.1,0c0.5,0,0.9-0.4,0.9-0.9h0V4.9C52.7,1.8,51,0,47.9,0C44.5,0,43,2.3,43,5.4
				c0,2.3,0.5,3.7,2.1,5.5l3.4,3.7c1.1,1.2,1.4,2.1,1.4,3.6c0,1.7-0.7,2.6-2.1,2.6c-1.1,0-1.9-0.7-1.9-2.4v-1.5l0,0
				c0-0.5-0.4-0.9-0.9-0.9c-0.2,0-0.9,0-1.1,0c-0.5,0-0.9,0.4-0.9,0.9l0,0v1.7c0,3.2,2,4.9,4.9,4.9c3.4,0,5.1-2.3,5.1-5.4
				c0-2.3-0.5-3.7-2.1-5.5L47.4,9z"/>
			<path class="st0" d="M69.8,0.3c-0.2,0-0.9,0-1.2,0c-0.5,0-0.9,0.4-0.9,0.9c0,0,0,0,0,0l0,0v21.1l0,0c0,0.5,0.4,0.9,0.9,0.9
				c0.2,0,0.9,0,1.2,0c0.5,0,0.9-0.4,0.9-0.9l0,0V1.2l0,0c0,0,0,0,0,0C70.7,0.7,70.3,0.3,69.8,0.3z"/>
			<path class="st0" d="M116.4,8.4V5.2c0-3.1-1.7-4.9-4.7-4.9s-4.8,1.8-4.8,4.9v17.2l0,0c0,0.5,0.4,0.9,0.9,0.9c0.2,0,0.9,0,1.1,0
				c0.5,0,0.9-0.4,0.9-0.9l0,0v-9.1h1.6c1.3,0,1.8,0.9,1.8,2.3v6.7l0,0c0,0.5,0.4,0.9,0.9,0.9c0.2,0,0.9,0,1.1,0
				c0.5,0,0.9-0.4,0.9-0.9l0,0v-6.7c0-1.7-0.6-3.2-1.9-3.8C115.6,11.3,116.4,10,116.4,8.4z M113.4,8.4c0,1.4-0.6,2.3-1.8,2.3h-1.6
				V5.3c0-1.6,0.7-2.3,1.8-2.3s1.7,0.7,1.7,2.3L113.4,8.4L113.4,8.4z"/>
		</g>
		<g>
			<path class="st0" d="M118.3,3.4c-0.9,0-1.7-0.8-1.7-1.7c0-0.9,0.8-1.7,1.7-1.7s1.7,0.8,1.7,1.7C120,2.6,119.2,3.4,118.3,3.4z
				 M118.3,0.3c-0.7,0-1.4,0.6-1.4,1.4c0,0.8,0.6,1.4,1.4,1.4s1.4-0.6,1.4-1.4C119.7,0.9,119.1,0.3,118.3,0.3z M119.2,2.6h-0.4
				l-0.3-0.7H118v0.6h-0.4V0.7h0.9c0.4,0,0.6,0.2,0.6,0.6c0,0.3-0.2,0.5-0.4,0.6L119.2,2.6z M118.5,1.6c0.1,0,0.3-0.1,0.3-0.3
				S118.7,1,118.5,1H118v0.6C118.2,1.6,118.5,1.6,118.5,1.6z"/>
		</g>
	</g>
</g>
</svg>
